<svg xmlns="http://www.w3.org/2000/svg" viewBox="0 0 800 450" width="800" height="450">
    <defs>
    <linearGradient id="bg" x1="0%" y1="0%" x2="100%" y2="100%">
      <stop offset="0%" stop-color="rgb(29, 123, 88)" />
      <stop offset="55%" stop-color="#0a0a14" />
      <stop offset="100%" stop-color="#05050a" />
    </linearGradient>
    <radialGradient id="glow" cx="50%" cy="35%" r="65%">
      <stop offset="0%" stop-color="#35e0a1" stop-opacity="0.55" />
      <stop offset="100%" stop-color="#35e0a1" stop-opacity="0" />
    </radialGradient>
    <radialGradient id="vignette" cx="50%" cy="45%" r="75%">
      <stop offset="55%" stop-color="#000000" stop-opacity="0" />
      <stop offset="100%" stop-color="#000000" stop-opacity="0.55" />
    </radialGradient>
    <filter id="grain">
      <feTurbulence type="fractalNoise" baseFrequency="0.85" numOctaves="2" stitchTiles="stitch" result="noise" />
      <feColorMatrix in="noise" type="matrix" values="0 0 0 0 1  0 0 0 0 1  0 0 0 0 1  0 0 0 0.05 0" />
    </filter>
    <filter id="blur"><feGaussianBlur stdDeviation="8" /></filter>
  </defs>
    
    <rect width="800" height="450" fill="url(#bg)" />
    <rect width="800" height="450" fill="url(#glow)" />
  
    <rect x="-40.51800681860186" y="-40.51800681860186" width="81.03601363720372" height="81.03601363720372" rx="14.58648245469667" fill="#35e0a1" opacity="0.16129918537568302" transform="translate(529.6536128968 358.53097562212497) rotate(-18.669171826913953)" /><rect x="-54.25390194286592" y="-54.25390194286592" width="108.50780388573185" height="108.50780388573185" rx="19.531404699431732" fill="#22d3ee" opacity="0.28788063656538726" transform="translate(5.45333344489336 223.7517888774164) rotate(1.2021905835717916)" /><rect x="-38.761215233244" y="-38.761215233244" width="77.522430466488" height="77.522430466488" rx="13.95403748396784" fill="#22d3ee" opacity="0.2659971887012944" transform="translate(634.2220030725002 144.24633180024102) rotate(-16.880434835329652)" /><rect x="-20.42407580302097" y="-20.42407580302097" width="40.84815160604194" height="40.84815160604194" rx="7.352667289087549" fill="#35e0a1" opacity="0.17121246401686221" transform="translate(326.8829433247447 142.5792162073776) rotate(-8.392543438822031)" /><rect x="-39.8404446861241" y="-39.8404446861241" width="79.6808893722482" height="79.6808893722482" rx="14.342560087004676" fill="#22d3ee" opacity="0.22319612886291" transform="translate(87.30679731816053 178.32607532618567) rotate(11.976557280868292)" /><rect x="-37.77391034178436" y="-37.77391034178436" width="75.54782068356872" height="75.54782068356872" rx="13.598607723042369" fill="#22d3ee" opacity="0.186863550292328" transform="translate(380.43558076024055 280.28196782106534) rotate(-7.9290935676544905)" /><rect x="-30.714301287662238" y="-30.714301287662238" width="61.428602575324476" height="61.428602575324476" rx="11.057148463558406" fill="#35e0a1" opacity="0.19133832284249366" transform="translate(707.9522974789143 420.46321876114234) rotate(18.376523405313492)" /><rect x="-42.33339049620554" y="-42.33339049620554" width="84.66678099241108" height="84.66678099241108" rx="15.240020578633994" fill="#22d3ee" opacity="0.23631974368356168" transform="translate(599.9504283070564 206.6293980111368) rotate(2.8063439577817917)" /><rect x="-29.771196476649493" y="-29.771196476649493" width="59.542392953298986" height="59.542392953298986" rx="10.717630731593816" fill="#22d3ee" opacity="0.18104258068371565" transform="translate(515.5162325128913 130.84989397320896) rotate(-13.368153227493167)" />
    
    <rect width="800" height="450" fill="url(#vignette)" />
    <rect width="800" height="450" filter="url(#grain)" opacity="0.5" />
  
    <text x="786" y="436" text-anchor="end" font-family="Sora, sans-serif" font-weight="800" font-size="14" letter-spacing="2" fill="#ffffff" opacity="0.35">ARCYN</text>
  </svg>