<svg xmlns="http://www.w3.org/2000/svg" viewBox="0 0 800 450" width="800" height="450">
    <defs>
    <linearGradient id="bg" x1="0%" y1="0%" x2="100%" y2="100%">
      <stop offset="0%" stop-color="rgb(68, 50, 140)" />
      <stop offset="55%" stop-color="#0a0a14" />
      <stop offset="100%" stop-color="#05050a" />
    </linearGradient>
    <radialGradient id="glow" cx="50%" cy="35%" r="65%">
      <stop offset="0%" stop-color="#7c5cff" stop-opacity="0.55" />
      <stop offset="100%" stop-color="#7c5cff" stop-opacity="0" />
    </radialGradient>
    <radialGradient id="vignette" cx="50%" cy="45%" r="75%">
      <stop offset="55%" stop-color="#000000" stop-opacity="0" />
      <stop offset="100%" stop-color="#000000" stop-opacity="0.55" />
    </radialGradient>
    <filter id="grain">
      <feTurbulence type="fractalNoise" baseFrequency="0.85" numOctaves="2" stitchTiles="stitch" result="noise" />
      <feColorMatrix in="noise" type="matrix" values="0 0 0 0 1  0 0 0 0 1  0 0 0 0 1  0 0 0 0.05 0" />
    </filter>
    <filter id="blur"><feGaussianBlur stdDeviation="8" /></filter>
  </defs>
    
    <rect width="800" height="450" fill="url(#bg)" />
    <rect width="800" height="450" fill="url(#glow)" />
  
    <rect x="-23.05944417603314" y="-23.05944417603314" width="46.11888835206628" height="46.11888835206628" rx="8.30139990337193" fill="#7c5cff" opacity="0.30468668782617897" transform="translate(599.812706373632 186.9082944584079) rotate(5.761891063302755)" /><rect x="-48.41284951195121" y="-48.41284951195121" width="96.82569902390242" height="96.82569902390242" rx="17.428625824302433" fill="#22d3ee" opacity="0.24643122436944398" transform="translate(304.6046830713749 292.5842597731389) rotate(-2.192954793572426)" /><rect x="-45.4730304365512" y="-45.4730304365512" width="90.9460608731024" height="90.9460608731024" rx="16.37029095715843" fill="#22d3ee" opacity="0.2078567056776956" transform="translate(120.9498904645443 309.17898615589365) rotate(5.073233926668763)" /><rect x="-23.356799652101472" y="-23.356799652101472" width="46.713599304202944" height="46.713599304202944" rx="8.40844787475653" fill="#7c5cff" opacity="0.1992519881343469" transform="translate(633.2708632573485 260.8615478617139) rotate(-2.4510369822382927)" /><rect x="-51.04967764462344" y="-51.04967764462344" width="102.09935528924689" height="102.09935528924689" rx="18.37788395206444" fill="#22d3ee" opacity="0.2579395039146766" transform="translate(693.0312743410468 226.94251905195415) rotate(6.1707875691354275)" /><rect x="-52.55794298835099" y="-52.55794298835099" width="105.11588597670197" height="105.11588597670197" rx="18.920859475806356" fill="#22d3ee" opacity="0.22882254691328854" transform="translate(250.273285061121 197.39783954573795) rotate(-0.9666377771645784)" /><rect x="-49.67776003992185" y="-49.67776003992185" width="99.3555200798437" height="99.3555200798437" rx="17.883993614371864" fill="#7c5cff" opacity="0.17284439780749383" transform="translate(227.75379978120327 45.19385355524719) rotate(7.785459803417325)" /><rect x="-52.179751271614805" y="-52.179751271614805" width="104.35950254322961" height="104.35950254322961" rx="18.78471045778133" fill="#22d3ee" opacity="0.2212167258746922" transform="translate(758.952827192843 294.8415371007286) rotate(-17.971297139301896)" /><rect x="-20.374007828067988" y="-20.374007828067988" width="40.748015656135976" height="40.748015656135976" rx="7.334642818104475" fill="#22d3ee" opacity="0.21607459398917855" transform="translate(556.3640628010035 22.55739939864725) rotate(-16.345754358917475)" />
    
    <rect width="800" height="450" fill="url(#vignette)" />
    <rect width="800" height="450" filter="url(#grain)" opacity="0.5" />
  
    <text x="786" y="436" text-anchor="end" font-family="Sora, sans-serif" font-weight="800" font-size="14" letter-spacing="2" fill="#ffffff" opacity="0.35">ARCYN</text>
  </svg>