<svg xmlns="http://www.w3.org/2000/svg" viewBox="0 0 800 450" width="800" height="450">
    <defs>
    <linearGradient id="bg" x1="0%" y1="0%" x2="100%" y2="100%">
      <stop offset="0%" stop-color="rgb(140, 50, 75)" />
      <stop offset="55%" stop-color="#0a0a14" />
      <stop offset="100%" stop-color="#05050a" />
    </linearGradient>
    <radialGradient id="glow" cx="50%" cy="35%" r="65%">
      <stop offset="0%" stop-color="#ff5c8a" stop-opacity="0.55" />
      <stop offset="100%" stop-color="#ff5c8a" stop-opacity="0" />
    </radialGradient>
    <radialGradient id="vignette" cx="50%" cy="45%" r="75%">
      <stop offset="55%" stop-color="#000000" stop-opacity="0" />
      <stop offset="100%" stop-color="#000000" stop-opacity="0.55" />
    </radialGradient>
    <filter id="grain">
      <feTurbulence type="fractalNoise" baseFrequency="0.85" numOctaves="2" stitchTiles="stitch" result="noise" />
      <feColorMatrix in="noise" type="matrix" values="0 0 0 0 1  0 0 0 0 1  0 0 0 0 1  0 0 0 0.05 0" />
    </filter>
    <filter id="blur"><feGaussianBlur stdDeviation="8" /></filter>
  </defs>
    
    <rect width="800" height="450" fill="url(#bg)" />
    <rect width="800" height="450" fill="url(#glow)" />
  
    <rect x="-23.114036467159167" y="-23.114036467159167" width="46.228072934318334" height="46.228072934318334" rx="8.321053128177299" fill="#ff5c8a" opacity="0.16664605836384" transform="translate(697.9786625131965 72.64867356279865) rotate(-9.44642391987145)" /><rect x="-27.660307724727318" y="-27.660307724727318" width="55.320615449454635" height="55.320615449454635" rx="9.957710780901834" fill="#22d3ee" opacity="0.20210597340017558" transform="translate(521.209135837853 131.36595675023273) rotate(-2.959920149296522)" /><rect x="-24.120560872834176" y="-24.120560872834176" width="48.24112174566835" height="48.24112174566835" rx="8.683401914220303" fill="#22d3ee" opacity="0.2786306325066835" transform="translate(445.541556365788 153.76212615519762) rotate(17.484861565753818)" /><rect x="-25.55824892478995" y="-25.55824892478995" width="51.1164978495799" height="51.1164978495799" rx="9.200969612924382" fill="#ff5c8a" opacity="0.24567278421483935" transform="translate(55.16346413642168 207.18301077140495) rotate(-19.09841887652874)" /><rect x="-21.546113580698147" y="-21.546113580698147" width="43.092227161396295" height="43.092227161396295" rx="7.756600889051333" fill="#22d3ee" opacity="0.16426652536261827" transform="translate(487.8423420712352 33.83999961661175) rotate(5.777687355875969)" /><rect x="-32.507162884576246" y="-32.507162884576246" width="65.01432576915249" height="65.01432576915249" rx="11.702578638447449" fill="#22d3ee" opacity="0.16834654975216837" transform="translate(338.0966730415821 425.5165868788026) rotate(18.70402947999537)" /><rect x="-45.5008079437539" y="-45.5008079437539" width="91.0016158875078" height="91.0016158875078" rx="16.3802908597514" fill="#ff5c8a" opacity="0.14284371919464323" transform="translate(162.05152310431004 425.4833232960664) rotate(-16.35426097549498)" /><rect x="-24.679487365065143" y="-24.679487365065143" width="49.358974730130285" height="49.358974730130285" rx="8.884615451423452" fill="#22d3ee" opacity="0.204317116397433" transform="translate(316.27303678542376 298.9729287684895) rotate(-4.095093607902527)" /><rect x="-38.690843713702634" y="-38.690843713702634" width="77.38168742740527" height="77.38168742740527" rx="13.928703736932947" fill="#22d3ee" opacity="0.2851665403181687" transform="translate(779.1331902146339 294.7576009319164) rotate(3.754529245197773)" />
    
    <rect width="800" height="450" fill="url(#vignette)" />
    <rect width="800" height="450" filter="url(#grain)" opacity="0.5" />
  
    <text x="786" y="436" text-anchor="end" font-family="Sora, sans-serif" font-weight="800" font-size="14" letter-spacing="2" fill="#ffffff" opacity="0.35">ARCYN</text>
  </svg>