<svg xmlns="http://www.w3.org/2000/svg" viewBox="0 0 800 450" width="800" height="450">
    <defs>
    <linearGradient id="bg" x1="0%" y1="0%" x2="100%" y2="100%">
      <stop offset="0%" stop-color="rgb(68, 50, 140)" />
      <stop offset="55%" stop-color="#0a0a14" />
      <stop offset="100%" stop-color="#05050a" />
    </linearGradient>
    <radialGradient id="glow" cx="50%" cy="35%" r="65%">
      <stop offset="0%" stop-color="#7c5cff" stop-opacity="0.55" />
      <stop offset="100%" stop-color="#7c5cff" stop-opacity="0" />
    </radialGradient>
    <radialGradient id="vignette" cx="50%" cy="45%" r="75%">
      <stop offset="55%" stop-color="#000000" stop-opacity="0" />
      <stop offset="100%" stop-color="#000000" stop-opacity="0.55" />
    </radialGradient>
    <filter id="grain">
      <feTurbulence type="fractalNoise" baseFrequency="0.85" numOctaves="2" stitchTiles="stitch" result="noise" />
      <feColorMatrix in="noise" type="matrix" values="0 0 0 0 1  0 0 0 0 1  0 0 0 0 1  0 0 0 0.05 0" />
    </filter>
    <filter id="blur"><feGaussianBlur stdDeviation="8" /></filter>
  </defs>
    
    <rect width="800" height="450" fill="url(#bg)" />
    <rect width="800" height="450" fill="url(#glow)" />
  
    <rect x="34.375" y="0" width="56.25" height="56.25" fill="#7c5cff" opacity="0.14" /><rect x="146.875" y="0" width="56.25" height="56.25" fill="#7c5cff" opacity="0.14" /><rect x="259.375" y="0" width="56.25" height="56.25" fill="#7c5cff" opacity="0.14" /><rect x="371.875" y="0" width="56.25" height="56.25" fill="#7c5cff" opacity="0.14" /><rect x="484.375" y="0" width="56.25" height="56.25" fill="#7c5cff" opacity="0.14" /><rect x="596.875" y="0" width="56.25" height="56.25" fill="#7c5cff" opacity="0.14" /><rect x="709.375" y="0" width="56.25" height="56.25" fill="#7c5cff" opacity="0.14" /><rect x="-21.875" y="56.25" width="56.25" height="56.25" fill="#7c5cff" opacity="0.14" /><rect x="90.625" y="56.25" width="56.25" height="56.25" fill="#7c5cff" opacity="0.14" /><rect x="203.125" y="56.25" width="56.25" height="56.25" fill="#7c5cff" opacity="0.14" /><rect x="315.625" y="56.25" width="56.25" height="56.25" fill="#7c5cff" opacity="0.14" /><rect x="428.125" y="56.25" width="56.25" height="56.25" fill="#7c5cff" opacity="0.14" /><rect x="540.625" y="56.25" width="56.25" height="56.25" fill="#7c5cff" opacity="0.14" /><rect x="653.125" y="56.25" width="56.25" height="56.25" fill="#7c5cff" opacity="0.14" /><rect x="765.625" y="56.25" width="56.25" height="56.25" fill="#7c5cff" opacity="0.14" /><rect x="34.375" y="112.5" width="56.25" height="56.25" fill="#7c5cff" opacity="0.14" /><rect x="146.875" y="112.5" width="56.25" height="56.25" fill="#7c5cff" opacity="0.14" /><rect x="259.375" y="112.5" width="56.25" height="56.25" fill="#7c5cff" opacity="0.14" /><rect x="371.875" y="112.5" width="56.25" height="56.25" fill="#7c5cff" opacity="0.14" /><rect x="484.375" y="112.5" width="56.25" height="56.25" fill="#7c5cff" opacity="0.14" /><rect x="596.875" y="112.5" width="56.25" height="56.25" fill="#7c5cff" opacity="0.14" /><rect x="709.375" y="112.5" width="56.25" height="56.25" fill="#7c5cff" opacity="0.14" /><rect x="-21.875" y="168.75" width="56.25" height="56.25" fill="#7c5cff" opacity="0.14" /><rect x="90.625" y="168.75" width="56.25" height="56.25" fill="#7c5cff" opacity="0.14" /><rect x="203.125" y="168.75" width="56.25" height="56.25" fill="#7c5cff" opacity="0.14" /><rect x="315.625" y="168.75" width="56.25" height="56.25" fill="#7c5cff" opacity="0.14" /><rect x="428.125" y="168.75" width="56.25" height="56.25" fill="#7c5cff" opacity="0.14" /><rect x="540.625" y="168.75" width="56.25" height="56.25" fill="#7c5cff" opacity="0.14" /><rect x="653.125" y="168.75" width="56.25" height="56.25" fill="#7c5cff" opacity="0.14" /><rect x="765.625" y="168.75" width="56.25" height="56.25" fill="#7c5cff" opacity="0.14" /><rect x="34.375" y="225" width="56.25" height="56.25" fill="#7c5cff" opacity="0.14" /><rect x="146.875" y="225" width="56.25" height="56.25" fill="#7c5cff" opacity="0.14" /><rect x="259.375" y="225" width="56.25" height="56.25" fill="#7c5cff" opacity="0.14" /><rect x="371.875" y="225" width="56.25" height="56.25" fill="#7c5cff" opacity="0.14" /><rect x="484.375" y="225" width="56.25" height="56.25" fill="#7c5cff" opacity="0.14" /><rect x="596.875" y="225" width="56.25" height="56.25" fill="#7c5cff" opacity="0.14" /><rect x="709.375" y="225" width="56.25" height="56.25" fill="#7c5cff" opacity="0.14" /><rect x="-21.875" y="281.25" width="56.25" height="56.25" fill="#7c5cff" opacity="0.14" /><rect x="90.625" y="281.25" width="56.25" height="56.25" fill="#7c5cff" opacity="0.14" /><rect x="203.125" y="281.25" width="56.25" height="56.25" fill="#7c5cff" opacity="0.14" /><rect x="315.625" y="281.25" width="56.25" height="56.25" fill="#7c5cff" opacity="0.14" /><rect x="428.125" y="281.25" width="56.25" height="56.25" fill="#7c5cff" opacity="0.14" /><rect x="540.625" y="281.25" width="56.25" height="56.25" fill="#7c5cff" opacity="0.14" /><rect x="653.125" y="281.25" width="56.25" height="56.25" fill="#7c5cff" opacity="0.14" /><rect x="765.625" y="281.25" width="56.25" height="56.25" fill="#7c5cff" opacity="0.14" /><rect x="34.375" y="337.5" width="56.25" height="56.25" fill="#7c5cff" opacity="0.14" /><rect x="146.875" y="337.5" width="56.25" height="56.25" fill="#7c5cff" opacity="0.14" /><rect x="259.375" y="337.5" width="56.25" height="56.25" fill="#7c5cff" opacity="0.14" /><rect x="371.875" y="337.5" width="56.25" height="56.25" fill="#7c5cff" opacity="0.14" /><rect x="484.375" y="337.5" width="56.25" height="56.25" fill="#7c5cff" opacity="0.14" /><rect x="596.875" y="337.5" width="56.25" height="56.25" fill="#7c5cff" opacity="0.14" /><rect x="709.375" y="337.5" width="56.25" height="56.25" fill="#7c5cff" opacity="0.14" /><rect x="-21.875" y="393.75" width="56.25" height="56.25" fill="#7c5cff" opacity="0.14" /><rect x="90.625" y="393.75" width="56.25" height="56.25" fill="#7c5cff" opacity="0.14" /><rect x="203.125" y="393.75" width="56.25" height="56.25" fill="#7c5cff" opacity="0.14" /><rect x="315.625" y="393.75" width="56.25" height="56.25" fill="#7c5cff" opacity="0.14" /><rect x="428.125" y="393.75" width="56.25" height="56.25" fill="#7c5cff" opacity="0.14" /><rect x="540.625" y="393.75" width="56.25" height="56.25" fill="#7c5cff" opacity="0.14" /><rect x="653.125" y="393.75" width="56.25" height="56.25" fill="#7c5cff" opacity="0.14" /><rect x="765.625" y="393.75" width="56.25" height="56.25" fill="#7c5cff" opacity="0.14" /><circle cx="400" cy="84.375" r="16.875" fill="#fff" opacity="0.85" /><circle cx="625" cy="84.375" r="16.875" fill="#22d3ee" opacity="0.55" /><circle cx="231.25" cy="28.125" r="16.875" fill="#fff" opacity="0.85" /><circle cx="118.75" cy="365.625" r="16.875" fill="#22d3ee" opacity="0.55" /><circle cx="231.25" cy="309.375" r="16.875" fill="#fff" opacity="0.85" /><circle cx="62.5" cy="421.875" r="16.875" fill="#22d3ee" opacity="0.55" />
    
    <rect width="800" height="450" fill="url(#vignette)" />
    <rect width="800" height="450" filter="url(#grain)" opacity="0.5" />
  
    <text x="786" y="436" text-anchor="end" font-family="Sora, sans-serif" font-weight="800" font-size="14" letter-spacing="2" fill="#ffffff" opacity="0.35">ARCYN</text>
  </svg>