<svg xmlns="http://www.w3.org/2000/svg" viewBox="0 0 800 450" width="800" height="450">
    <defs>
    <linearGradient id="bg" x1="0%" y1="0%" x2="100%" y2="100%">
      <stop offset="0%" stop-color="rgb(18, 116, 130)" />
      <stop offset="55%" stop-color="#0a0a14" />
      <stop offset="100%" stop-color="#05050a" />
    </linearGradient>
    <radialGradient id="glow" cx="50%" cy="35%" r="65%">
      <stop offset="0%" stop-color="#22d3ee" stop-opacity="0.55" />
      <stop offset="100%" stop-color="#22d3ee" stop-opacity="0" />
    </radialGradient>
    <radialGradient id="vignette" cx="50%" cy="45%" r="75%">
      <stop offset="55%" stop-color="#000000" stop-opacity="0" />
      <stop offset="100%" stop-color="#000000" stop-opacity="0.55" />
    </radialGradient>
    <filter id="grain">
      <feTurbulence type="fractalNoise" baseFrequency="0.85" numOctaves="2" stitchTiles="stitch" result="noise" />
      <feColorMatrix in="noise" type="matrix" values="0 0 0 0 1  0 0 0 0 1  0 0 0 0 1  0 0 0 0.05 0" />
    </filter>
    <filter id="blur"><feGaussianBlur stdDeviation="8" /></filter>
  </defs>
    
    <rect width="800" height="450" fill="url(#bg)" />
    <rect width="800" height="450" fill="url(#glow)" />
  
    <circle cx="264.5473781041801" cy="99" r="46" fill="#22d3ee" opacity="0.7" /><polygon points="0,450 0,179.93907307740304 160,209.44820997817445 320,192.98707538447346 480,202.07254933915104 640,186.21297181374396 800,180.90681577264334 800,450" fill="rgb(13, 84, 95)" opacity="0.55" /><polygon points="0,450 0,309.4278387364 160,304.3409506972879 320,258.0126732878387 480,248.10121309217067 640,307.9533554244787 800,270.6984224036336 800,450" fill="rgb(18, 116, 130)" opacity="0.7000000000000001" /><polygon points="0,450 0,328.91003618915573 160,325.83731462401346 320,341.9386337357574 480,327.7394527564757 640,328.40202997508464 800,335.3661228592974 800,450" fill="rgb(23, 147, 166)" opacity="0.8500000000000001" />
    
    <rect width="800" height="450" fill="url(#vignette)" />
    <rect width="800" height="450" filter="url(#grain)" opacity="0.5" />
  
    <text x="786" y="436" text-anchor="end" font-family="Sora, sans-serif" font-weight="800" font-size="14" letter-spacing="2" fill="#ffffff" opacity="0.35">ARCYN</text>
  </svg>