<svg xmlns="http://www.w3.org/2000/svg" viewBox="0 0 800 450" width="800" height="450">
    <defs>
    <linearGradient id="bg" x1="0%" y1="0%" x2="100%" y2="100%">
      <stop offset="0%" stop-color="rgb(140, 99, 37)" />
      <stop offset="55%" stop-color="#0a0a14" />
      <stop offset="100%" stop-color="#05050a" />
    </linearGradient>
    <radialGradient id="glow" cx="50%" cy="35%" r="65%">
      <stop offset="0%" stop-color="#ffb444" stop-opacity="0.55" />
      <stop offset="100%" stop-color="#ffb444" stop-opacity="0" />
    </radialGradient>
    <radialGradient id="vignette" cx="50%" cy="45%" r="75%">
      <stop offset="55%" stop-color="#000000" stop-opacity="0" />
      <stop offset="100%" stop-color="#000000" stop-opacity="0.55" />
    </radialGradient>
    <filter id="grain">
      <feTurbulence type="fractalNoise" baseFrequency="0.85" numOctaves="2" stitchTiles="stitch" result="noise" />
      <feColorMatrix in="noise" type="matrix" values="0 0 0 0 1  0 0 0 0 1  0 0 0 0 1  0 0 0 0.05 0" />
    </filter>
    <filter id="blur"><feGaussianBlur stdDeviation="8" /></filter>
  </defs>
    
    <rect width="800" height="450" fill="url(#bg)" />
    <rect width="800" height="450" fill="url(#glow)" />
  
    <line x1="0" y1="450" x2="340" y2="247.50000000000003" stroke="#ffb444" stroke-opacity="0.22" stroke-width="1" /><line x1="80" y1="450" x2="352" y2="247.50000000000003" stroke="#ffb444" stroke-opacity="0.22" stroke-width="1" /><line x1="160" y1="450" x2="364" y2="247.50000000000003" stroke="#ffb444" stroke-opacity="0.22" stroke-width="1" /><line x1="240" y1="450" x2="376" y2="247.50000000000003" stroke="#ffb444" stroke-opacity="0.22" stroke-width="1" /><line x1="320" y1="450" x2="388" y2="247.50000000000003" stroke="#ffb444" stroke-opacity="0.22" stroke-width="1" /><line x1="400" y1="450" x2="400" y2="247.50000000000003" stroke="#ffb444" stroke-opacity="0.22" stroke-width="1" /><line x1="480" y1="450" x2="412" y2="247.50000000000003" stroke="#ffb444" stroke-opacity="0.22" stroke-width="1" /><line x1="560" y1="450" x2="424" y2="247.50000000000003" stroke="#ffb444" stroke-opacity="0.22" stroke-width="1" /><line x1="640" y1="450" x2="436" y2="247.50000000000003" stroke="#ffb444" stroke-opacity="0.22" stroke-width="1" /><line x1="720" y1="450" x2="448" y2="247.50000000000003" stroke="#ffb444" stroke-opacity="0.22" stroke-width="1" /><line x1="800" y1="450" x2="460" y2="247.50000000000003" stroke="#ffb444" stroke-opacity="0.22" stroke-width="1" /><line x1="0" y1="247.50000000000003" x2="800" y2="247.50000000000003" stroke="#ffb444" stroke-opacity="0.1" stroke-width="1" /><line x1="0" y1="288" x2="800" y2="288" stroke="#ffb444" stroke-opacity="0.13" stroke-width="1" /><line x1="0" y1="328.5" x2="800" y2="328.5" stroke="#ffb444" stroke-opacity="0.16" stroke-width="1" /><line x1="0" y1="369" x2="800" y2="369" stroke="#ffb444" stroke-opacity="0.19" stroke-width="1" /><line x1="0" y1="409.5" x2="800" y2="409.5" stroke="#ffb444" stroke-opacity="0.22" stroke-width="1" /><line x1="0" y1="450" x2="800" y2="450" stroke="#ffb444" stroke-opacity="0.25" stroke-width="1" /><rect x="525.6556073203683" y="51.71778247877957" width="23.269291829317808" height="23.269291829317808" fill="#ffb444" opacity="0.5" /><rect x="454.4405724853277" y="113.53869183221835" width="22.50769578758627" height="22.50769578758627" fill="#ffb444" opacity="0.5" /><rect x="249.00351539254189" y="94.22204267559574" width="35.8682120135054" height="35.8682120135054" fill="#ffb444" opacity="0.5" /><rect x="651.5804218128324" y="68.46774754207583" width="27.742710121441633" height="27.742710121441633" fill="#ffb444" opacity="0.5" /><rect x="179.4088339433074" y="129.67243697214874" width="22.162104212213308" height="22.162104212213308" fill="#ffb444" opacity="0.5" />
    
    <rect width="800" height="450" fill="url(#vignette)" />
    <rect width="800" height="450" filter="url(#grain)" opacity="0.5" />
  
    <text x="786" y="436" text-anchor="end" font-family="Sora, sans-serif" font-weight="800" font-size="14" letter-spacing="2" fill="#ffffff" opacity="0.35">ARCYN</text>
  </svg>