<svg xmlns="http://www.w3.org/2000/svg" viewBox="0 0 800 450" width="800" height="450">
    <defs>
    <linearGradient id="bg" x1="0%" y1="0%" x2="100%" y2="100%">
      <stop offset="0%" stop-color="rgb(140, 50, 75)" />
      <stop offset="55%" stop-color="#0a0a14" />
      <stop offset="100%" stop-color="#05050a" />
    </linearGradient>
    <radialGradient id="glow" cx="50%" cy="35%" r="65%">
      <stop offset="0%" stop-color="#ff5c8a" stop-opacity="0.55" />
      <stop offset="100%" stop-color="#ff5c8a" stop-opacity="0" />
    </radialGradient>
    <radialGradient id="vignette" cx="50%" cy="45%" r="75%">
      <stop offset="55%" stop-color="#000000" stop-opacity="0" />
      <stop offset="100%" stop-color="#000000" stop-opacity="0.55" />
    </radialGradient>
    <filter id="grain">
      <feTurbulence type="fractalNoise" baseFrequency="0.85" numOctaves="2" stitchTiles="stitch" result="noise" />
      <feColorMatrix in="noise" type="matrix" values="0 0 0 0 1  0 0 0 0 1  0 0 0 0 1  0 0 0 0.05 0" />
    </filter>
    <filter id="blur"><feGaussianBlur stdDeviation="8" /></filter>
  </defs>
    
    <rect width="800" height="450" fill="url(#bg)" />
    <rect width="800" height="450" fill="url(#glow)" />
  
    <rect x="-37.08689417690039" y="-37.08689417690039" width="74.17378835380077" height="74.17378835380077" rx="13.35128190368414" fill="#ff5c8a" opacity="0.27652421619277445" transform="translate(708.1886352971196 366.2230055197142) rotate(-8.887729542329907)" /><rect x="-26.850582067854702" y="-26.850582067854702" width="53.701164135709405" height="53.701164135709405" rx="9.666209544427693" fill="#22d3ee" opacity="0.24939399441704155" transform="translate(391.035708039999 164.25284973811358) rotate(0.658204136416316)" /><rect x="-20.729060343001038" y="-20.729060343001038" width="41.458120686002076" height="41.458120686002076" rx="7.462461723480374" fill="#22d3ee" opacity="0.31370347875636073" transform="translate(189.64231796562672 373.71698539936915) rotate(19.501202227547765)" /><rect x="-50.54167297901586" y="-50.54167297901586" width="101.08334595803171" height="101.08334595803171" rx="18.19500227244571" fill="#ff5c8a" opacity="0.3036163713457063" transform="translate(277.5569351390004 159.2075987602584) rotate(14.580268589779735)" /><rect x="-22.479267632588744" y="-22.479267632588744" width="44.95853526517749" height="44.95853526517749" rx="8.092536347731947" fill="#22d3ee" opacity="0.2695541836321354" transform="translate(737.5364284962416 46.51807544287294) rotate(-1.9169381726533175)" /><rect x="-52.54639419610612" y="-52.54639419610612" width="105.09278839221224" height="105.09278839221224" rx="18.916701910598203" fill="#22d3ee" opacity="0.30503383168019355" transform="translate(447.38339874893427 32.32349561294541) rotate(-7.537221321836114)" /><rect x="-50.343527001095936" y="-50.343527001095936" width="100.68705400219187" height="100.68705400219187" rx="18.123669720394535" fill="#ff5c8a" opacity="0.18561298697721215" transform="translate(188.36917374283075 170.67348678829148) rotate(-2.7349165361374617)" /><rect x="-28.738317065872252" y="-28.738317065872252" width="57.476634131744504" height="57.476634131744504" rx="10.345794143714011" fill="#22d3ee" opacity="0.2205858804564923" transform="translate(565.8644514158368 254.11828674841672) rotate(-15.414629634469748)" /><rect x="-38.721409955760464" y="-38.721409955760464" width="77.44281991152093" height="77.44281991152093" rx="13.939707584073767" fill="#22d3ee" opacity="0.24491750064305962" transform="translate(212.32704017311335 350.27034308295697) rotate(4.138888586312532)" />
    
    <rect width="800" height="450" fill="url(#vignette)" />
    <rect width="800" height="450" filter="url(#grain)" opacity="0.5" />
  
    <text x="786" y="436" text-anchor="end" font-family="Sora, sans-serif" font-weight="800" font-size="14" letter-spacing="2" fill="#ffffff" opacity="0.35">ARCYN</text>
  </svg>