<svg xmlns="http://www.w3.org/2000/svg" viewBox="0 0 800 450" width="800" height="450">
    <defs>
    <linearGradient id="bg" x1="0%" y1="0%" x2="100%" y2="100%">
      <stop offset="0%" stop-color="rgb(68, 50, 140)" />
      <stop offset="55%" stop-color="#0a0a14" />
      <stop offset="100%" stop-color="#05050a" />
    </linearGradient>
    <radialGradient id="glow" cx="50%" cy="35%" r="65%">
      <stop offset="0%" stop-color="#7c5cff" stop-opacity="0.55" />
      <stop offset="100%" stop-color="#7c5cff" stop-opacity="0" />
    </radialGradient>
    <radialGradient id="vignette" cx="50%" cy="45%" r="75%">
      <stop offset="55%" stop-color="#000000" stop-opacity="0" />
      <stop offset="100%" stop-color="#000000" stop-opacity="0.55" />
    </radialGradient>
    <filter id="grain">
      <feTurbulence type="fractalNoise" baseFrequency="0.85" numOctaves="2" stitchTiles="stitch" result="noise" />
      <feColorMatrix in="noise" type="matrix" values="0 0 0 0 1  0 0 0 0 1  0 0 0 0 1  0 0 0 0.05 0" />
    </filter>
    <filter id="blur"><feGaussianBlur stdDeviation="8" /></filter>
  </defs>
    
    <rect width="800" height="450" fill="url(#bg)" />
    <rect width="800" height="450" fill="url(#glow)" />
  
    
      <polygon points="352,189 448,189 800,450 0,450" fill="rgb(34, 25, 71)" opacity="0.5" />
      <line x1="352" y1="189" x2="448" y2="189" stroke="#ffb444" stroke-opacity="0.15" stroke-width="1" /><line x1="290.6666666666667" y1="232.5" x2="509.3333333333333" y2="232.5" stroke="#ffb444" stroke-opacity="0.16666666666666666" stroke-width="1.3333333333333333" /><line x1="229.33333333333334" y1="276" x2="570.6666666666666" y2="276" stroke="#ffb444" stroke-opacity="0.18333333333333332" stroke-width="1.6666666666666665" /><line x1="167.99999999999997" y1="319.5" x2="632" y2="319.5" stroke="#ffb444" stroke-opacity="0.2" stroke-width="2" /><line x1="106.66666666666669" y1="363" x2="693.3333333333333" y2="363" stroke="#ffb444" stroke-opacity="0.21666666666666667" stroke-width="2.333333333333333" /><line x1="45.333333333333314" y1="406.5" x2="754.6666666666667" y2="406.5" stroke="#ffb444" stroke-opacity="0.23333333333333334" stroke-width="2.666666666666667" /><line x1="-16" y1="450" x2="816" y2="450" stroke="#ffb444" stroke-opacity="0.25" stroke-width="3" />
      <line x1="0" y1="189" x2="800" y2="189" stroke="#7c5cff" stroke-opacity="0.4" stroke-width="2" />
      <rect x="299.5471799746156" y="18.032136466843077" width="64.94335293769836" height="3" rx="1.5" fill="#7c5cff" opacity="0.31648477357812227" transform="skewX(-25)" /><rect x="334.7984254360199" y="83.0444095554296" width="109.05565645545721" height="3" rx="1.5" fill="#7c5cff" opacity="0.5467673597158864" transform="skewX(-25)" /><rect x="186.3748388364911" y="90.40685662890318" width="114.40654620528221" height="3" rx="1.5" fill="#7c5cff" opacity="0.32197031115647406" transform="skewX(-25)" /><rect x="323.71824756264687" y="77.81104419524782" width="194.0673392638564" height="3" rx="1.5" fill="#7c5cff" opacity="0.3505954633001238" transform="skewX(-25)" /><rect x="564.7083412855864" y="154.2310793400975" width="142.16556038707495" height="3" rx="1.5" fill="#7c5cff" opacity="0.46533719722647215" transform="skewX(-25)" /><rect x="240.30090104788542" y="47.466105023445564" width="78.54496147483587" height="3" rx="1.5" fill="#7c5cff" opacity="0.4125426001381129" transform="skewX(-25)" /><rect x="763.6681966483593" y="137.33840894019232" width="119.24468278884888" height="3" rx="1.5" fill="#7c5cff" opacity="0.25081501924432814" transform="skewX(-25)" /><rect x="206.00134190171957" y="84.12694275281392" width="154.9299355223775" height="3" rx="1.5" fill="#7c5cff" opacity="0.33215158137027173" transform="skewX(-25)" /><rect x="321.33684549480677" y="44.891579741425815" width="114.81991723179817" height="3" rx="1.5" fill="#7c5cff" opacity="0.25280176582746205" transform="skewX(-25)" /><rect x="11.668187379837036" y="67.0365388052538" width="203.9003348350525" height="3" rx="1.5" fill="#7c5cff" opacity="0.4538685973733664" transform="skewX(-25)" />
    
    
    <rect width="800" height="450" fill="url(#vignette)" />
    <rect width="800" height="450" filter="url(#grain)" opacity="0.5" />
  
    <text x="786" y="436" text-anchor="end" font-family="Sora, sans-serif" font-weight="800" font-size="14" letter-spacing="2" fill="#ffffff" opacity="0.35">ARCYN</text>
  </svg>