<svg xmlns="http://www.w3.org/2000/svg" viewBox="0 0 800 450" width="800" height="450">
    <defs>
    <linearGradient id="bg" x1="0%" y1="0%" x2="100%" y2="100%">
      <stop offset="0%" stop-color="rgb(140, 50, 75)" />
      <stop offset="55%" stop-color="#0a0a14" />
      <stop offset="100%" stop-color="#05050a" />
    </linearGradient>
    <radialGradient id="glow" cx="50%" cy="35%" r="65%">
      <stop offset="0%" stop-color="#ff5c8a" stop-opacity="0.55" />
      <stop offset="100%" stop-color="#ff5c8a" stop-opacity="0" />
    </radialGradient>
    <radialGradient id="vignette" cx="50%" cy="45%" r="75%">
      <stop offset="55%" stop-color="#000000" stop-opacity="0" />
      <stop offset="100%" stop-color="#000000" stop-opacity="0.55" />
    </radialGradient>
    <filter id="grain">
      <feTurbulence type="fractalNoise" baseFrequency="0.85" numOctaves="2" stitchTiles="stitch" result="noise" />
      <feColorMatrix in="noise" type="matrix" values="0 0 0 0 1  0 0 0 0 1  0 0 0 0 1  0 0 0 0.05 0" />
    </filter>
    <filter id="blur"><feGaussianBlur stdDeviation="8" /></filter>
  </defs>
    
    <rect width="800" height="450" fill="url(#bg)" />
    <rect width="800" height="450" fill="url(#glow)" />
  
    <rect x="-37.34442427987233" y="-37.34442427987233" width="74.68884855974466" height="74.68884855974466" rx="13.443992740754037" fill="#ff5c8a" opacity="0.17382931765634568" transform="translate(328.6615766584873 352.80517623759806) rotate(7.24001519382)" /><rect x="-46.63103692466393" y="-46.63103692466393" width="93.26207384932786" height="93.26207384932786" rx="16.787173292879014" fill="#22d3ee" opacity="0.16246838664636018" transform="translate(650.2283599227667 331.863668106962) rotate(5.931910881772637)" /><rect x="-25.011473270133138" y="-25.011473270133138" width="50.022946540266275" height="50.022946540266275" rx="9.004130377247929" fill="#22d3ee" opacity="0.1918137824861333" transform="translate(227.2192906588316 12.999973073601723) rotate(14.80697319842875)" /><rect x="-52.05915401922539" y="-52.05915401922539" width="104.11830803845078" height="104.11830803845078" rx="18.74129544692114" fill="#ff5c8a" opacity="0.2550790105201304" transform="translate(238.9117006212473 49.33024995261803) rotate(5.551007846370339)" /><rect x="-48.57344861375168" y="-48.57344861375168" width="97.14689722750336" height="97.14689722750336" rx="17.486441500950605" fill="#22d3ee" opacity="0.2903739342465997" transform="translate(608.6828986182809 9.239555429667234) rotate(19.428867269307375)" /><rect x="-51.6271019121632" y="-51.6271019121632" width="103.2542038243264" height="103.2542038243264" rx="18.58575668837875" fill="#22d3ee" opacity="0.23308767821639775" transform="translate(158.17358400672674 12.262203195132315) rotate(6.511570569127798)" /><rect x="-29.78780766017735" y="-29.78780766017735" width="59.5756153203547" height="59.5756153203547" rx="10.723610757663845" fill="#ff5c8a" opacity="0.1945889395987615" transform="translate(543.895922973752 180.62512449687347) rotate(18.057061228901148)" /><rect x="-53.47899084328674" y="-53.47899084328674" width="106.95798168657348" height="106.95798168657348" rx="19.252436703583225" fill="#22d3ee" opacity="0.2799374592630193" transform="translate(593.6953872442245 128.59758784761652) rotate(-16.67066255584359)" /><rect x="-26.87230296432972" y="-26.87230296432972" width="53.74460592865944" height="53.74460592865944" rx="9.674029067158699" fill="#22d3ee" opacity="0.20771221671253443" transform="translate(77.92646791785955 94.45366283180192) rotate(-10.194592718034983)" />
    
    <rect width="800" height="450" fill="url(#vignette)" />
    <rect width="800" height="450" filter="url(#grain)" opacity="0.5" />
  
    <text x="786" y="436" text-anchor="end" font-family="Sora, sans-serif" font-weight="800" font-size="14" letter-spacing="2" fill="#ffffff" opacity="0.35">ARCYN</text>
  </svg>