<svg xmlns="http://www.w3.org/2000/svg" viewBox="0 0 800 450" width="800" height="450">
    <defs>
    <linearGradient id="bg" x1="0%" y1="0%" x2="100%" y2="100%">
      <stop offset="0%" stop-color="rgb(18, 116, 130)" />
      <stop offset="55%" stop-color="#0a0a14" />
      <stop offset="100%" stop-color="#05050a" />
    </linearGradient>
    <radialGradient id="glow" cx="50%" cy="35%" r="65%">
      <stop offset="0%" stop-color="#22d3ee" stop-opacity="0.55" />
      <stop offset="100%" stop-color="#22d3ee" stop-opacity="0" />
    </radialGradient>
    <radialGradient id="vignette" cx="50%" cy="45%" r="75%">
      <stop offset="55%" stop-color="#000000" stop-opacity="0" />
      <stop offset="100%" stop-color="#000000" stop-opacity="0.55" />
    </radialGradient>
    <filter id="grain">
      <feTurbulence type="fractalNoise" baseFrequency="0.85" numOctaves="2" stitchTiles="stitch" result="noise" />
      <feColorMatrix in="noise" type="matrix" values="0 0 0 0 1  0 0 0 0 1  0 0 0 0 1  0 0 0 0.05 0" />
    </filter>
    <filter id="blur"><feGaussianBlur stdDeviation="8" /></filter>
  </defs>
    
    <rect width="800" height="450" fill="url(#bg)" />
    <rect width="800" height="450" fill="url(#glow)" />
  
    <line x1="114.28571428571429" y1="36" x2="228.57142857142858" y2="36" stroke="#22d3ee" stroke-opacity="0.25" stroke-width="1" /><line x1="571.4285714285714" y1="36" x2="685.7142857142858" y2="36" stroke="#22d3ee" stroke-opacity="0.25" stroke-width="1" /><line x1="685.7142857142858" y1="36" x2="57.142857142857146" y2="137.25" stroke="#22d3ee" stroke-opacity="0.25" stroke-width="1" /><line x1="57.142857142857146" y1="137.25" x2="285.7142857142857" y2="137.25" stroke="#22d3ee" stroke-opacity="0.25" stroke-width="1" /><line x1="742.8571428571429" y1="137.25" x2="114.28571428571429" y2="238.5" stroke="#22d3ee" stroke-opacity="0.25" stroke-width="1" /><line x1="457.14285714285717" y1="238.5" x2="57.142857142857146" y2="339.75" stroke="#22d3ee" stroke-opacity="0.25" stroke-width="1" /><line x1="285.7142857142857" y1="339.75" x2="514.2857142857143" y2="339.75" stroke="#22d3ee" stroke-opacity="0.25" stroke-width="1" /><line x1="628.5714285714286" y1="339.75" x2="742.8571428571429" y2="339.75" stroke="#22d3ee" stroke-opacity="0.25" stroke-width="1" /><polygon points="155.85493366736733,12.000000000000004 155.85493366736733,60 114.28571428571429,84 72.71649490406124,60 72.71649490406122,12.000000000000014 114.28571428571423,-12" fill="#7c5cff" opacity="0.12393429861869662" stroke="#7c5cff" stroke-opacity="0.4" /><polygon points="270.1406479530816,12.000000000000004 270.1406479530816,60 228.57142857142858,84 187.00220918977553,60 187.00220918977553,12.000000000000014 228.57142857142853,-12" fill="#7c5cff" opacity="0.16212131509557365" stroke="#7c5cff" stroke-opacity="0.4" /><polygon points="384.42636223879595,12.000000000000004 384.42636223879595,60 342.8571428571429,84 301.28792347548983,60 301.28792347548983,12.000000000000014 342.85714285714283,-12" fill="#7c5cff" opacity="0.2576079150941223" stroke="#7c5cff" stroke-opacity="0.4" /><polygon points="612.9977908102245,12.000000000000004 612.9977908102245,60 571.4285714285714,84 529.8593520469184,60 529.8593520469184,12.000000000000014 571.4285714285714,-12" fill="#7c5cff" opacity="0.23798539718147366" stroke="#7c5cff" stroke-opacity="0.4" /><polygon points="727.2835050959388,12.000000000000004 727.2835050959388,60 685.7142857142858,84 644.1450663326327,60 644.1450663326327,12.000000000000014 685.7142857142858,-12" fill="#7c5cff" opacity="0.2228202280635014" stroke="#7c5cff" stroke-opacity="0.4" /><polygon points="98.7120765245102,113.25 98.7120765245102,161.25 57.142857142857146,185.25 15.57363776120409,161.25 15.573637761204083,113.25000000000001 57.142857142857096,89.25" fill="#7c5cff" opacity="0.12146343105006963" stroke="#7c5cff" stroke-opacity="0.4" /><polygon points="327.2835050959388,113.25 327.2835050959388,161.25 285.7142857142857,185.25 244.14506633263267,161.25 244.14506633263267,113.25000000000001 285.71428571428567,89.25" fill="#22d3ee" opacity="0.1298750969977118" stroke="#22d3ee" stroke-opacity="0.4" /><polygon points="555.8549336673674,113.25 555.8549336673674,161.25 514.2857142857143,185.25 472.7164949040613,161.25 472.7164949040613,113.25000000000001 514.2857142857143,89.25" fill="#7c5cff" opacity="0.18822465886361894" stroke="#7c5cff" stroke-opacity="0.4" /><polygon points="784.426362238796,113.25 784.426362238796,161.25 742.8571428571429,185.25 701.2879234754898,161.25 701.2879234754898,113.25000000000001 742.8571428571429,89.25" fill="#7c5cff" opacity="0.22128158619627356" stroke="#7c5cff" stroke-opacity="0.4" /><polygon points="155.85493366736733,214.5 155.85493366736733,262.5 114.28571428571429,286.5 72.71649490406124,262.5 72.71649490406122,214.5 114.28571428571423,190.5" fill="#7c5cff" opacity="0.16479253040626646" stroke="#7c5cff" stroke-opacity="0.4" /><polygon points="270.1406479530816,214.5 270.1406479530816,262.5 228.57142857142858,286.5 187.00220918977553,262.5 187.00220918977553,214.5 228.57142857142853,190.5" fill="#22d3ee" opacity="0.12272759541403502" stroke="#22d3ee" stroke-opacity="0.4" /><polygon points="498.7120765245102,214.5 498.7120765245102,262.5 457.14285714285717,286.5 415.5736377612041,262.5 415.5736377612041,214.5 457.1428571428571,190.5" fill="#7c5cff" opacity="0.1787159838527441" stroke="#7c5cff" stroke-opacity="0.4" /><polygon points="98.7120765245102,315.75 98.7120765245102,363.75 57.142857142857146,387.75 15.57363776120409,363.75 15.573637761204083,315.75 57.142857142857096,291.75" fill="#7c5cff" opacity="0.23926864493871108" stroke="#7c5cff" stroke-opacity="0.4" /><polygon points="327.2835050959388,315.75 327.2835050959388,363.75 285.7142857142857,387.75 244.14506633263267,363.75 244.14506633263267,315.75 285.71428571428567,291.75" fill="#22d3ee" opacity="0.25675971706397827" stroke="#22d3ee" stroke-opacity="0.4" /><polygon points="555.8549336673674,315.75 555.8549336673674,363.75 514.2857142857143,387.75 472.7164949040613,363.75 472.7164949040613,315.75 514.2857142857143,291.75" fill="#7c5cff" opacity="0.14495054496685042" stroke="#7c5cff" stroke-opacity="0.4" /><polygon points="670.1406479530816,315.75 670.1406479530816,363.75 628.5714285714286,387.75 587.0022091897755,363.75 587.0022091897755,315.75 628.5714285714286,291.75" fill="#7c5cff" opacity="0.24313680325169115" stroke="#7c5cff" stroke-opacity="0.4" /><polygon points="784.426362238796,315.75 784.426362238796,363.75 742.8571428571429,387.75 701.2879234754898,363.75 701.2879234754898,315.75 742.8571428571429,291.75" fill="#22d3ee" opacity="0.2689449975430034" stroke="#22d3ee" stroke-opacity="0.4" />
    
    <rect width="800" height="450" fill="url(#vignette)" />
    <rect width="800" height="450" filter="url(#grain)" opacity="0.5" />
  
    <text x="786" y="436" text-anchor="end" font-family="Sora, sans-serif" font-weight="800" font-size="14" letter-spacing="2" fill="#ffffff" opacity="0.35">ARCYN</text>
  </svg>