<svg xmlns="http://www.w3.org/2000/svg" viewBox="0 0 800 450" width="800" height="450">
    <defs>
    <linearGradient id="bg" x1="0%" y1="0%" x2="100%" y2="100%">
      <stop offset="0%" stop-color="rgb(18, 116, 130)" />
      <stop offset="55%" stop-color="#0a0a14" />
      <stop offset="100%" stop-color="#05050a" />
    </linearGradient>
    <radialGradient id="glow" cx="50%" cy="35%" r="65%">
      <stop offset="0%" stop-color="#22d3ee" stop-opacity="0.55" />
      <stop offset="100%" stop-color="#22d3ee" stop-opacity="0" />
    </radialGradient>
    <radialGradient id="vignette" cx="50%" cy="45%" r="75%">
      <stop offset="55%" stop-color="#000000" stop-opacity="0" />
      <stop offset="100%" stop-color="#000000" stop-opacity="0.55" />
    </radialGradient>
    <filter id="grain">
      <feTurbulence type="fractalNoise" baseFrequency="0.85" numOctaves="2" stitchTiles="stitch" result="noise" />
      <feColorMatrix in="noise" type="matrix" values="0 0 0 0 1  0 0 0 0 1  0 0 0 0 1  0 0 0 0.05 0" />
    </filter>
    <filter id="blur"><feGaussianBlur stdDeviation="8" /></filter>
  </defs>
    
    <rect width="800" height="450" fill="url(#bg)" />
    <rect width="800" height="450" fill="url(#glow)" />
  
    <rect x="-33.75421401928179" y="-33.75421401928179" width="67.50842803856358" height="67.50842803856358" rx="12.151517046941445" fill="#22d3ee" opacity="0.26790590793825686" transform="translate(432.46558886021376 317.8245757240802) rotate(17.682283837348223)" /><rect x="-34.72335450584069" y="-34.72335450584069" width="69.44670901168138" height="69.44670901168138" rx="12.500407622102648" fill="#22d3ee" opacity="0.2327234067814425" transform="translate(448.31580743193626 326.0771313565783) rotate(-12.619712771847844)" /><rect x="-39.97026768280193" y="-39.97026768280193" width="79.94053536560386" height="79.94053536560386" rx="14.389296365808695" fill="#22d3ee" opacity="0.20051019147038462" transform="translate(96.63799926638603 342.0824376982637) rotate(-14.59623396396637)" /><rect x="-44.4327394280117" y="-44.4327394280117" width="88.8654788560234" height="88.8654788560234" rx="15.99578619408421" fill="#22d3ee" opacity="0.16932878240477295" transform="translate(544.288719072938 230.69512088550255) rotate(-11.954184295609593)" /><rect x="-26.381152756512165" y="-26.381152756512165" width="52.76230551302433" height="52.76230551302433" rx="9.497214992344379" fill="#22d3ee" opacity="0.27364392252173275" transform="translate(653.1998550519347 233.48854528740048) rotate(-7.650213083252311)" /><rect x="-47.01768032158725" y="-47.01768032158725" width="94.0353606431745" height="94.0353606431745" rx="16.92636491577141" fill="#22d3ee" opacity="0.18493146691937" transform="translate(550.4761038348079 286.38246048940346) rotate(-15.968768615275621)" /><rect x="-23.828919974621385" y="-23.828919974621385" width="47.65783994924277" height="47.65783994924277" rx="8.578411190863699" fill="#22d3ee" opacity="0.31947900185361505" transform="translate(365.4430355876684 76.08650999609381) rotate(8.376916199922562)" /><rect x="-22.71388344001025" y="-22.71388344001025" width="45.4277668800205" height="45.4277668800205" rx="8.17699803840369" fill="#22d3ee" opacity="0.15993142059072854" transform="translate(712.1683659031987 324.52295038383454) rotate(0.413863193243742)" /><rect x="-24.468360330211" y="-24.468360330211" width="48.936720660422" height="48.936720660422" rx="8.808609718875958" fill="#22d3ee" opacity="0.17605071872007103" transform="translate(633.5843356326222 93.13012323109433) rotate(13.446616483852267)" />
    
    <rect width="800" height="450" fill="url(#vignette)" />
    <rect width="800" height="450" filter="url(#grain)" opacity="0.5" />
  
    <text x="786" y="436" text-anchor="end" font-family="Sora, sans-serif" font-weight="800" font-size="14" letter-spacing="2" fill="#ffffff" opacity="0.35">ARCYN</text>
  </svg>