<svg xmlns="http://www.w3.org/2000/svg" viewBox="0 0 800 450" width="800" height="450">
    <defs>
    <linearGradient id="bg" x1="0%" y1="0%" x2="100%" y2="100%">
      <stop offset="0%" stop-color="rgb(140, 50, 75)" />
      <stop offset="55%" stop-color="#0a0a14" />
      <stop offset="100%" stop-color="#05050a" />
    </linearGradient>
    <radialGradient id="glow" cx="50%" cy="35%" r="65%">
      <stop offset="0%" stop-color="#ff5c8a" stop-opacity="0.55" />
      <stop offset="100%" stop-color="#ff5c8a" stop-opacity="0" />
    </radialGradient>
    <radialGradient id="vignette" cx="50%" cy="45%" r="75%">
      <stop offset="55%" stop-color="#000000" stop-opacity="0" />
      <stop offset="100%" stop-color="#000000" stop-opacity="0.55" />
    </radialGradient>
    <filter id="grain">
      <feTurbulence type="fractalNoise" baseFrequency="0.85" numOctaves="2" stitchTiles="stitch" result="noise" />
      <feColorMatrix in="noise" type="matrix" values="0 0 0 0 1  0 0 0 0 1  0 0 0 0 1  0 0 0 0.05 0" />
    </filter>
    <filter id="blur"><feGaussianBlur stdDeviation="8" /></filter>
  </defs>
    
    <rect width="800" height="450" fill="url(#bg)" />
    <rect width="800" height="450" fill="url(#glow)" />
  
    
      <polygon points="352,189 448,189 800,450 0,450" fill="rgb(71, 25, 38)" opacity="0.5" />
      <line x1="352" y1="189" x2="448" y2="189" stroke="#ffb444" stroke-opacity="0.15" stroke-width="1" /><line x1="290.6666666666667" y1="232.5" x2="509.3333333333333" y2="232.5" stroke="#ffb444" stroke-opacity="0.16666666666666666" stroke-width="1.3333333333333333" /><line x1="229.33333333333334" y1="276" x2="570.6666666666666" y2="276" stroke="#ffb444" stroke-opacity="0.18333333333333332" stroke-width="1.6666666666666665" /><line x1="167.99999999999997" y1="319.5" x2="632" y2="319.5" stroke="#ffb444" stroke-opacity="0.2" stroke-width="2" /><line x1="106.66666666666669" y1="363" x2="693.3333333333333" y2="363" stroke="#ffb444" stroke-opacity="0.21666666666666667" stroke-width="2.333333333333333" /><line x1="45.333333333333314" y1="406.5" x2="754.6666666666667" y2="406.5" stroke="#ffb444" stroke-opacity="0.23333333333333334" stroke-width="2.666666666666667" /><line x1="-16" y1="450" x2="816" y2="450" stroke="#ffb444" stroke-opacity="0.25" stroke-width="3" />
      <line x1="0" y1="189" x2="800" y2="189" stroke="#ff5c8a" stroke-opacity="0.4" stroke-width="2" />
      <rect x="546.9426115974784" y="80.55450659843628" width="105.87377432733774" height="3" rx="1.5" fill="#ff5c8a" opacity="0.4468713123118505" transform="skewX(-25)" /><rect x="48.6381471157074" y="99.96394388061017" width="114.58795811980963" height="3" rx="1.5" fill="#ff5c8a" opacity="0.5204271900234744" transform="skewX(-25)" /><rect x="314.2378743737936" y="44.658660532929936" width="63.406668826937675" height="3" rx="1.5" fill="#ff5c8a" opacity="0.32379550514742733" transform="skewX(-25)" /><rect x="649.3939718231559" y="162.65509984421078" width="201.06079768389463" height="3" rx="1.5" fill="#ff5c8a" opacity="0.4224856613436714" transform="skewX(-25)" /><rect x="567.1492306515574" y="113.00439159490634" width="154.5821438357234" height="3" rx="1.5" fill="#ff5c8a" opacity="0.33334238291718066" transform="skewX(-25)" /><rect x="24.63518064469099" y="18.42014425401576" width="110.45294966548681" height="3" rx="1.5" fill="#ff5c8a" opacity="0.4048759689088911" transform="skewX(-25)" /><rect x="196.52237333357334" y="52.52195152339991" width="153.65271233022213" height="3" rx="1.5" fill="#ff5c8a" opacity="0.5178446532925591" transform="skewX(-25)" /><rect x="75.3406846895814" y="52.69980084351264" width="87.2654090449214" height="3" rx="1.5" fill="#ff5c8a" opacity="0.3095313274068758" transform="skewX(-25)" /><rect x="413.6503176763654" y="77.02687809555792" width="133.28175205737352" height="3" rx="1.5" fill="#ff5c8a" opacity="0.4703137845965102" transform="skewX(-25)" /><rect x="233.2408668473363" y="17.001125387405047" width="208.28871000558138" height="3" rx="1.5" fill="#ff5c8a" opacity="0.34444176754914224" transform="skewX(-25)" />
    
    
    <rect width="800" height="450" fill="url(#vignette)" />
    <rect width="800" height="450" filter="url(#grain)" opacity="0.5" />
  
    <text x="786" y="436" text-anchor="end" font-family="Sora, sans-serif" font-weight="800" font-size="14" letter-spacing="2" fill="#ffffff" opacity="0.35">ARCYN</text>
  </svg>