<svg xmlns="http://www.w3.org/2000/svg" viewBox="0 0 800 450" width="800" height="450">
    <defs>
    <linearGradient id="bg" x1="0%" y1="0%" x2="100%" y2="100%">
      <stop offset="0%" stop-color="rgb(68, 50, 140)" />
      <stop offset="55%" stop-color="#0a0a14" />
      <stop offset="100%" stop-color="#05050a" />
    </linearGradient>
    <radialGradient id="glow" cx="50%" cy="35%" r="65%">
      <stop offset="0%" stop-color="#7c5cff" stop-opacity="0.55" />
      <stop offset="100%" stop-color="#7c5cff" stop-opacity="0" />
    </radialGradient>
    <radialGradient id="vignette" cx="50%" cy="45%" r="75%">
      <stop offset="55%" stop-color="#000000" stop-opacity="0" />
      <stop offset="100%" stop-color="#000000" stop-opacity="0.55" />
    </radialGradient>
    <filter id="grain">
      <feTurbulence type="fractalNoise" baseFrequency="0.85" numOctaves="2" stitchTiles="stitch" result="noise" />
      <feColorMatrix in="noise" type="matrix" values="0 0 0 0 1  0 0 0 0 1  0 0 0 0 1  0 0 0 0.05 0" />
    </filter>
    <filter id="blur"><feGaussianBlur stdDeviation="8" /></filter>
  </defs>
    
    <rect width="800" height="450" fill="url(#bg)" />
    <rect width="800" height="450" fill="url(#glow)" />
  
    <circle cx="440.00000000000006" cy="202.5" r="70" fill="#7c5cff" opacity="0.35" filter="url(#blur)" /><polygon points="546.5445103606295,63.36745652636577 570.3003840565767,87.123330222313 546.5445103606295,110.87920391826023 522.7886366646823,87.123330222313" fill="#ff5c8a" opacity="0.27948388050543144" transform="rotate(350.76953566633165 546.5445103606295 87.123330222313)" /><polygon points="308.8220578532895,185.44147741652523 324.9618410093939,201.58126057262962 308.8220578532895,217.721043728734 292.6822746971851,201.58126057262962" fill="#7c5cff" opacity="0.3283612871961668" transform="rotate(121.38959353789687 308.8220578532895 201.58126057262962)" /><polygon points="224.91343698753306,136.17266352029694 262.0617547539089,173.32098128667278 224.91343698753306,210.46929905304862 187.76511922115722,173.32098128667278" fill="#ff5c8a" opacity="0.2669540214771405" transform="rotate(229.68455415219069 224.91343698753306 173.32098128667278)" /><polygon points="274.7211891911559,96.39747119517533 302.72012688877135,124.3964088927908 274.7211891911559,152.3953465904063 246.7222514935404,124.3964088927908" fill="#7c5cff" opacity="0.20077956817811354" transform="rotate(2.6568936556577682 274.7211891911559 124.3964088927908)" /><polygon points="329.47129551818364,211.62357175126306 353.9655799882836,236.117856221363 329.47129551818364,260.61214069146297 304.9770110480837,236.117856221363" fill="#ff5c8a" opacity="0.28456997039727866" transform="rotate(131.58489111810923 329.47129551818364 236.117856221363)" /><polygon points="496.254924153282,278.6081119783336 521.4194966874334,303.772684512485 496.254924153282,328.9372570466364 471.0903516191306,303.772684512485" fill="#7c5cff" opacity="0.19088494138093665" transform="rotate(31.041483879089355 496.254924153282 303.772684512485)" /><polygon points="397.36528062881365,218.60192756842605 435.44478142322436,256.68142836283675 397.36528062881365,294.76092915724746 359.28577983440294,256.68142836283675" fill="#ff5c8a" opacity="0.186167660059873" transform="rotate(102.78030158020556 397.36528062881365 256.68142836283675)" /><polygon points="369.66360436531346,87.8440181327733 394.7561793365758,112.93659310403567 369.66360436531346,138.02916807529803 344.5710293940511,112.93659310403567" fill="#7c5cff" opacity="0.1852872474770993" transform="rotate(330.29631396755576 369.66360436531346 112.93659310403567)" /><polygon points="344.79076644817644,224.49669977952095 361.25519356077814,240.96112689212265 344.79076644817644,257.42555400472435 328.32633933557474,240.96112689212265" fill="#ff5c8a" opacity="0.41383353382814675" transform="rotate(151.14585966803133 344.79076644817644 240.96112689212265)" /><polygon points="404.5711225223433,217.83680632837087 438.3044850866947,251.57016889272228 404.5711225223433,285.3035314570737 370.83775995799186,251.57016889272228" fill="#7c5cff" opacity="0.35393622727831825" transform="rotate(216.66231664828956 404.5711225223433 251.57016889272228)" />
    
    <rect width="800" height="450" fill="url(#vignette)" />
    <rect width="800" height="450" filter="url(#grain)" opacity="0.5" />
  
    <text x="786" y="436" text-anchor="end" font-family="Sora, sans-serif" font-weight="800" font-size="14" letter-spacing="2" fill="#ffffff" opacity="0.35">ARCYN</text>
  </svg>