<svg xmlns="http://www.w3.org/2000/svg" viewBox="0 0 800 450" width="800" height="450">
    <defs>
    <linearGradient id="bg" x1="0%" y1="0%" x2="100%" y2="100%">
      <stop offset="0%" stop-color="rgb(29, 123, 88)" />
      <stop offset="55%" stop-color="#0a0a14" />
      <stop offset="100%" stop-color="#05050a" />
    </linearGradient>
    <radialGradient id="glow" cx="50%" cy="35%" r="65%">
      <stop offset="0%" stop-color="#35e0a1" stop-opacity="0.55" />
      <stop offset="100%" stop-color="#35e0a1" stop-opacity="0" />
    </radialGradient>
    <radialGradient id="vignette" cx="50%" cy="45%" r="75%">
      <stop offset="55%" stop-color="#000000" stop-opacity="0" />
      <stop offset="100%" stop-color="#000000" stop-opacity="0.55" />
    </radialGradient>
    <filter id="grain">
      <feTurbulence type="fractalNoise" baseFrequency="0.85" numOctaves="2" stitchTiles="stitch" result="noise" />
      <feColorMatrix in="noise" type="matrix" values="0 0 0 0 1  0 0 0 0 1  0 0 0 0 1  0 0 0 0.05 0" />
    </filter>
    <filter id="blur"><feGaussianBlur stdDeviation="8" /></filter>
  </defs>
    
    <rect width="800" height="450" fill="url(#bg)" />
    <rect width="800" height="450" fill="url(#glow)" />
  
    <line x1="0" y1="450" x2="340" y2="247.50000000000003" stroke="#35e0a1" stroke-opacity="0.22" stroke-width="1" /><line x1="80" y1="450" x2="352" y2="247.50000000000003" stroke="#35e0a1" stroke-opacity="0.22" stroke-width="1" /><line x1="160" y1="450" x2="364" y2="247.50000000000003" stroke="#35e0a1" stroke-opacity="0.22" stroke-width="1" /><line x1="240" y1="450" x2="376" y2="247.50000000000003" stroke="#35e0a1" stroke-opacity="0.22" stroke-width="1" /><line x1="320" y1="450" x2="388" y2="247.50000000000003" stroke="#35e0a1" stroke-opacity="0.22" stroke-width="1" /><line x1="400" y1="450" x2="400" y2="247.50000000000003" stroke="#35e0a1" stroke-opacity="0.22" stroke-width="1" /><line x1="480" y1="450" x2="412" y2="247.50000000000003" stroke="#35e0a1" stroke-opacity="0.22" stroke-width="1" /><line x1="560" y1="450" x2="424" y2="247.50000000000003" stroke="#35e0a1" stroke-opacity="0.22" stroke-width="1" /><line x1="640" y1="450" x2="436" y2="247.50000000000003" stroke="#35e0a1" stroke-opacity="0.22" stroke-width="1" /><line x1="720" y1="450" x2="448" y2="247.50000000000003" stroke="#35e0a1" stroke-opacity="0.22" stroke-width="1" /><line x1="800" y1="450" x2="460" y2="247.50000000000003" stroke="#35e0a1" stroke-opacity="0.22" stroke-width="1" /><line x1="0" y1="247.50000000000003" x2="800" y2="247.50000000000003" stroke="#35e0a1" stroke-opacity="0.1" stroke-width="1" /><line x1="0" y1="288" x2="800" y2="288" stroke="#35e0a1" stroke-opacity="0.13" stroke-width="1" /><line x1="0" y1="328.5" x2="800" y2="328.5" stroke="#35e0a1" stroke-opacity="0.16" stroke-width="1" /><line x1="0" y1="369" x2="800" y2="369" stroke="#35e0a1" stroke-opacity="0.19" stroke-width="1" /><line x1="0" y1="409.5" x2="800" y2="409.5" stroke="#35e0a1" stroke-opacity="0.22" stroke-width="1" /><line x1="0" y1="450" x2="800" y2="450" stroke="#35e0a1" stroke-opacity="0.25" stroke-width="1" /><rect x="616.2022763863206" y="160.9786040238105" width="22.387465220410377" height="22.387465220410377" fill="#ffb444" opacity="0.5" /><rect x="687.1457010507584" y="121.926346229855" width="28.402362340129912" height="28.402362340129912" fill="#ffb444" opacity="0.5" /><rect x="783.636731095612" y="43.132694715633995" width="38.250958929769695" height="38.250958929769695" fill="#ffb444" opacity="0.5" /><rect x="599.7812291607261" y="66.72515107132496" width="20.73792653856799" height="20.73792653856799" fill="#ffb444" opacity="0.5" /><rect x="304.6337313950062" y="2.3070743819698696" width="33.450089959893376" height="33.450089959893376" fill="#ffb444" opacity="0.5" />
    
    <rect width="800" height="450" fill="url(#vignette)" />
    <rect width="800" height="450" filter="url(#grain)" opacity="0.5" />
  
    <text x="786" y="436" text-anchor="end" font-family="Sora, sans-serif" font-weight="800" font-size="14" letter-spacing="2" fill="#ffffff" opacity="0.35">ARCYN</text>
  </svg>