<svg xmlns="http://www.w3.org/2000/svg" viewBox="0 0 800 450" width="800" height="450">
    <defs>
    <linearGradient id="bg" x1="0%" y1="0%" x2="100%" y2="100%">
      <stop offset="0%" stop-color="rgb(140, 99, 37)" />
      <stop offset="55%" stop-color="#0a0a14" />
      <stop offset="100%" stop-color="#05050a" />
    </linearGradient>
    <radialGradient id="glow" cx="50%" cy="35%" r="65%">
      <stop offset="0%" stop-color="#ffb444" stop-opacity="0.55" />
      <stop offset="100%" stop-color="#ffb444" stop-opacity="0" />
    </radialGradient>
    <radialGradient id="vignette" cx="50%" cy="45%" r="75%">
      <stop offset="55%" stop-color="#000000" stop-opacity="0" />
      <stop offset="100%" stop-color="#000000" stop-opacity="0.55" />
    </radialGradient>
    <filter id="grain">
      <feTurbulence type="fractalNoise" baseFrequency="0.85" numOctaves="2" stitchTiles="stitch" result="noise" />
      <feColorMatrix in="noise" type="matrix" values="0 0 0 0 1  0 0 0 0 1  0 0 0 0 1  0 0 0 0.05 0" />
    </filter>
    <filter id="blur"><feGaussianBlur stdDeviation="8" /></filter>
  </defs>
    
    <rect width="800" height="450" fill="url(#bg)" />
    <rect width="800" height="450" fill="url(#glow)" />
  
    <rect x="-53.66304602357559" y="-53.66304602357559" width="107.32609204715118" height="107.32609204715118" rx="19.318696568487212" fill="#ffb444" opacity="0.17529603550210596" transform="translate(741.3560874760151 224.82852501561865) rotate(17.311815917491913)" /><rect x="-45.77353904140182" y="-45.77353904140182" width="91.54707808280364" height="91.54707808280364" rx="16.478474054904655" fill="#22d3ee" opacity="0.1639011883782223" transform="translate(665.0469828397036 45.97168652107939) rotate(9.737745877355337)" /><rect x="-36.73540512099862" y="-36.73540512099862" width="73.47081024199724" height="73.47081024199724" rx="13.224745843559504" fill="#22d3ee" opacity="0.23718156522605569" transform="translate(271.870375610888 439.55221575452015) rotate(-13.89565990306437)" /><rect x="-43.39863579836674" y="-43.39863579836674" width="86.79727159673348" height="86.79727159673348" rx="15.623508887412026" fill="#ffb444" opacity="0.20808575325179846" transform="translate(770.2802093699574 73.26830344973132) rotate(12.84717109054327)" /><rect x="-34.35441025882028" y="-34.35441025882028" width="68.70882051764056" height="68.70882051764056" rx="12.3675876931753" fill="#22d3ee" opacity="0.27761326543055476" transform="translate(82.78859592974186 98.65411792416126) rotate(-10.69499984383583)" /><rect x="-38.80982087343" y="-38.80982087343" width="77.61964174686" height="77.61964174686" rx="13.9715355144348" fill="#22d3ee" opacity="0.15745492992457003" transform="translate(45.654300041496754 224.12986782146618) rotate(1.0830437019467354)" /><rect x="-42.36151420045644" y="-42.36151420045644" width="84.72302840091288" height="84.72302840091288" rx="15.250145112164319" fill="#ffb444" opacity="0.2529524453682825" transform="translate(126.35794226080179 1.6827541287057102) rotate(-10.244484031572938)" /><rect x="-37.597320534987375" y="-37.597320534987375" width="75.19464106997475" height="75.19464106997475" rx="13.535035392595455" fill="#22d3ee" opacity="0.25655411211308093" transform="translate(619.2502776160836 437.73957994999364) rotate(-13.509201146662235)" /><rect x="-39.39245932502672" y="-39.39245932502672" width="78.78491865005344" height="78.78491865005344" rx="14.18128535700962" fill="#22d3ee" opacity="0.22793763720896096" transform="translate(532.9132709652185 352.0466571673751) rotate(13.967069881036878)" />
    
    <rect width="800" height="450" fill="url(#vignette)" />
    <rect width="800" height="450" filter="url(#grain)" opacity="0.5" />
  
    <text x="786" y="436" text-anchor="end" font-family="Sora, sans-serif" font-weight="800" font-size="14" letter-spacing="2" fill="#ffffff" opacity="0.35">ARCYN</text>
  </svg>