<svg xmlns="http://www.w3.org/2000/svg" viewBox="0 0 800 450" width="800" height="450">
    <defs>
    <linearGradient id="bg" x1="0%" y1="0%" x2="100%" y2="100%">
      <stop offset="0%" stop-color="rgb(18, 116, 130)" />
      <stop offset="55%" stop-color="#0a0a14" />
      <stop offset="100%" stop-color="#05050a" />
    </linearGradient>
    <radialGradient id="glow" cx="50%" cy="35%" r="65%">
      <stop offset="0%" stop-color="#22d3ee" stop-opacity="0.55" />
      <stop offset="100%" stop-color="#22d3ee" stop-opacity="0" />
    </radialGradient>
    <radialGradient id="vignette" cx="50%" cy="45%" r="75%">
      <stop offset="55%" stop-color="#000000" stop-opacity="0" />
      <stop offset="100%" stop-color="#000000" stop-opacity="0.55" />
    </radialGradient>
    <filter id="grain">
      <feTurbulence type="fractalNoise" baseFrequency="0.85" numOctaves="2" stitchTiles="stitch" result="noise" />
      <feColorMatrix in="noise" type="matrix" values="0 0 0 0 1  0 0 0 0 1  0 0 0 0 1  0 0 0 0.05 0" />
    </filter>
    <filter id="blur"><feGaussianBlur stdDeviation="8" /></filter>
  </defs>
    
    <rect width="800" height="450" fill="url(#bg)" />
    <rect width="800" height="450" fill="url(#glow)" />
  
    <line x1="0" y1="36" x2="342.8571428571429" y2="36" stroke="#22d3ee" stroke-opacity="0.25" stroke-width="1" /><line x1="57.142857142857146" y1="137.25" x2="171.42857142857144" y2="137.25" stroke="#22d3ee" stroke-opacity="0.25" stroke-width="1" /><line x1="400.00000000000006" y1="137.25" x2="628.5714285714286" y2="137.25" stroke="#22d3ee" stroke-opacity="0.25" stroke-width="1" /><line x1="342.8571428571429" y1="238.5" x2="571.4285714285714" y2="238.5" stroke="#22d3ee" stroke-opacity="0.25" stroke-width="1" /><line x1="571.4285714285714" y1="238.5" x2="285.7142857142857" y2="339.75" stroke="#22d3ee" stroke-opacity="0.25" stroke-width="1" /><line x1="628.5714285714286" y1="339.75" x2="742.8571428571429" y2="339.75" stroke="#22d3ee" stroke-opacity="0.25" stroke-width="1" /><polygon points="41.569219381653056,12.000000000000004 41.569219381653056,60 2.9391523179536475e-15,84 -41.569219381653056,60 -41.56921938165306,12.000000000000014 -5.1450021099466954e-14,-12" fill="#22d3ee" opacity="0.20340522522339596" stroke="#22d3ee" stroke-opacity="0.4" /><polygon points="384.42636223879595,12.000000000000004 384.42636223879595,60 342.8571428571429,84 301.28792347548983,60 301.28792347548983,12.000000000000014 342.85714285714283,-12" fill="#7c5cff" opacity="0.1490796637069434" stroke="#7c5cff" stroke-opacity="0.4" /><polygon points="498.7120765245102,12.000000000000004 498.7120765245102,60 457.14285714285717,84 415.5736377612041,60 415.5736377612041,12.000000000000014 457.1428571428571,-12" fill="#7c5cff" opacity="0.12754185832338408" stroke="#7c5cff" stroke-opacity="0.4" /><polygon points="612.9977908102245,12.000000000000004 612.9977908102245,60 571.4285714285714,84 529.8593520469184,60 529.8593520469184,12.000000000000014 571.4285714285714,-12" fill="#22d3ee" opacity="0.2474825821747072" stroke="#22d3ee" stroke-opacity="0.4" /><polygon points="98.7120765245102,113.25 98.7120765245102,161.25 57.142857142857146,185.25 15.57363776120409,161.25 15.573637761204083,113.25000000000001 57.142857142857096,89.25" fill="#7c5cff" opacity="0.21146659586112945" stroke="#7c5cff" stroke-opacity="0.4" /><polygon points="212.9977908102245,113.25 212.9977908102245,161.25 171.42857142857144,185.25 129.8593520469184,161.25 129.8593520469184,113.25000000000001 171.4285714285714,89.25" fill="#22d3ee" opacity="0.17914911594009025" stroke="#22d3ee" stroke-opacity="0.4" /><polygon points="327.2835050959388,113.25 327.2835050959388,161.25 285.7142857142857,185.25 244.14506633263267,161.25 244.14506633263267,113.25000000000001 285.71428571428567,89.25" fill="#7c5cff" opacity="0.26333207815652715" stroke="#7c5cff" stroke-opacity="0.4" /><polygon points="441.5692193816531,113.25 441.5692193816531,161.25 400.00000000000006,185.25 358.430780618347,161.25 358.430780618347,113.25000000000001 400,89.25" fill="#22d3ee" opacity="0.22730085623217744" stroke="#22d3ee" stroke-opacity="0.4" /><polygon points="670.1406479530816,113.25 670.1406479530816,161.25 628.5714285714286,185.25 587.0022091897755,161.25 587.0022091897755,113.25000000000001 628.5714285714286,89.25" fill="#7c5cff" opacity="0.2512181084300391" stroke="#7c5cff" stroke-opacity="0.4" /><polygon points="784.426362238796,113.25 784.426362238796,161.25 742.8571428571429,185.25 701.2879234754898,161.25 701.2879234754898,113.25000000000001 742.8571428571429,89.25" fill="#7c5cff" opacity="0.18051640306832267" stroke="#7c5cff" stroke-opacity="0.4" /><polygon points="41.569219381653056,214.5 41.569219381653056,262.5 2.9391523179536475e-15,286.5 -41.569219381653056,262.5 -41.56921938165306,214.5 -5.1450021099466954e-14,190.5" fill="#7c5cff" opacity="0.1302948041050695" stroke="#7c5cff" stroke-opacity="0.4" /><polygon points="155.85493366736733,214.5 155.85493366736733,262.5 114.28571428571429,286.5 72.71649490406124,262.5 72.71649490406122,214.5 114.28571428571423,190.5" fill="#7c5cff" opacity="0.12961934686638416" stroke="#7c5cff" stroke-opacity="0.4" /><polygon points="384.42636223879595,214.5 384.42636223879595,262.5 342.8571428571429,286.5 301.28792347548983,262.5 301.28792347548983,214.5 342.85714285714283,190.5" fill="#7c5cff" opacity="0.25026523810112844" stroke="#7c5cff" stroke-opacity="0.4" /><polygon points="612.9977908102245,214.5 612.9977908102245,262.5 571.4285714285714,286.5 529.8593520469184,262.5 529.8593520469184,214.5 571.4285714285714,190.5" fill="#7c5cff" opacity="0.12264166711131111" stroke="#7c5cff" stroke-opacity="0.4" /><polygon points="327.2835050959388,315.75 327.2835050959388,363.75 285.7142857142857,387.75 244.14506633263267,363.75 244.14506633263267,315.75 285.71428571428567,291.75" fill="#7c5cff" opacity="0.26200283023528753" stroke="#7c5cff" stroke-opacity="0.4" /><polygon points="441.5692193816531,315.75 441.5692193816531,363.75 400.00000000000006,387.75 358.430780618347,363.75 358.430780618347,315.75 400,291.75" fill="#7c5cff" opacity="0.13872773885261266" stroke="#7c5cff" stroke-opacity="0.4" /><polygon points="555.8549336673674,315.75 555.8549336673674,363.75 514.2857142857143,387.75 472.7164949040613,363.75 472.7164949040613,315.75 514.2857142857143,291.75" fill="#7c5cff" opacity="0.2351026088395156" stroke="#7c5cff" stroke-opacity="0.4" /><polygon points="670.1406479530816,315.75 670.1406479530816,363.75 628.5714285714286,387.75 587.0022091897755,363.75 587.0022091897755,315.75 628.5714285714286,291.75" fill="#22d3ee" opacity="0.20300480414181948" stroke="#22d3ee" stroke-opacity="0.4" /><polygon points="784.426362238796,315.75 784.426362238796,363.75 742.8571428571429,387.75 701.2879234754898,363.75 701.2879234754898,315.75 742.8571428571429,291.75" fill="#7c5cff" opacity="0.1887427857890725" stroke="#7c5cff" stroke-opacity="0.4" />
    
    <rect width="800" height="450" fill="url(#vignette)" />
    <rect width="800" height="450" filter="url(#grain)" opacity="0.5" />
  
    <text x="786" y="436" text-anchor="end" font-family="Sora, sans-serif" font-weight="800" font-size="14" letter-spacing="2" fill="#ffffff" opacity="0.35">ARCYN</text>
  </svg>