<svg xmlns="http://www.w3.org/2000/svg" viewBox="0 0 800 450" width="800" height="450">
    <defs>
    <linearGradient id="bg" x1="0%" y1="0%" x2="100%" y2="100%">
      <stop offset="0%" stop-color="rgb(140, 99, 37)" />
      <stop offset="55%" stop-color="#0a0a14" />
      <stop offset="100%" stop-color="#05050a" />
    </linearGradient>
    <radialGradient id="glow" cx="50%" cy="35%" r="65%">
      <stop offset="0%" stop-color="#ffb444" stop-opacity="0.55" />
      <stop offset="100%" stop-color="#ffb444" stop-opacity="0" />
    </radialGradient>
    <radialGradient id="vignette" cx="50%" cy="45%" r="75%">
      <stop offset="55%" stop-color="#000000" stop-opacity="0" />
      <stop offset="100%" stop-color="#000000" stop-opacity="0.55" />
    </radialGradient>
    <filter id="grain">
      <feTurbulence type="fractalNoise" baseFrequency="0.85" numOctaves="2" stitchTiles="stitch" result="noise" />
      <feColorMatrix in="noise" type="matrix" values="0 0 0 0 1  0 0 0 0 1  0 0 0 0 1  0 0 0 0.05 0" />
    </filter>
    <filter id="blur"><feGaussianBlur stdDeviation="8" /></filter>
  </defs>
    
    <rect width="800" height="450" fill="url(#bg)" />
    <rect width="800" height="450" fill="url(#glow)" />
  
    <circle cx="440.00000000000006" cy="202.5" r="70" fill="#ffb444" opacity="0.35" filter="url(#blur)" /><polygon points="660.2917025381763,82.4171154569602 692.4792549800192,114.60466789880306 660.2917025381763,146.7922203406459 628.1041500963335,114.60466789880306" fill="#ff5c8a" opacity="0.3178477106918581" transform="rotate(40.732110338285565 660.2917025381763 114.60466789880306)" /><polygon points="544.9101043941099,126.60400857248584 573.0161880661379,154.71009224451387 544.9101043941099,182.8161759165419 516.8040207220819,154.71009224451387" fill="#ffb444" opacity="0.32046332106227055" transform="rotate(307.8718163911253 544.9101043941099 154.71009224451387)" /><polygon points="620.0091823000753,167.44978098930656 644.1894518035756,191.63005049280687 620.0091823000753,215.8103199963072 595.828912796575,191.63005049280687" fill="#ff5c8a" opacity="0.37130204268731176" transform="rotate(283.70137240737677 620.0091823000753 191.63005049280687)" /><polygon points="349.03258010861407,155.69472371453372 380.87300062621887,187.53514423213852 349.03258010861407,219.37556474974332 317.1921595910093,187.53514423213852" fill="#ffb444" opacity="0.23030236934544518" transform="rotate(218.77163683064282 349.03258010861407 187.53514423213852)" /><polygon points="433.0491678741935,96.98956899456641 467.1198319149378,131.06023303531072 433.0491678741935,165.13089707605502 398.97850383344917,131.06023303531072" fill="#ff5c8a" opacity="0.29954602622427046" transform="rotate(331.00625990889966 433.0491678741935 131.06023303531072)" /><polygon points="326.0735229495021,198.99335168484572 365.81193863219045,238.73176736753408 326.0735229495021,278.47018305022243 286.33510726681374,238.73176736753408" fill="#ffb444" opacity="0.27797316789627075" transform="rotate(223.1743291206658 326.0735229495021 238.73176736753408)" /><polygon points="410.51189104931075,260.4576645778104 442.73760130906123,292.6833748375609 410.51189104931075,324.9090850973114 378.28618078956026,292.6833748375609" fill="#ff5c8a" opacity="0.28230594099266454" transform="rotate(152.47076354920864 410.51189104931075 292.6833748375609)" /><polygon points="308.9109241438771,239.53123733905727 325.67143733405715,256.29175052923733 308.9109241438771,273.0522637194174 292.150410953697,256.29175052923733" fill="#ffb444" opacity="0.3791759781958535" transform="rotate(144.41732386127114 308.9109241438771 256.29175052923733)" /><polygon points="519.5426676314579,205.8405989927615 538.7712012100288,225.06913257133243 519.5426676314579,244.29766614990336 500.31413405288697,225.06913257133243" fill="#ff5c8a" opacity="0.4113664038083516" transform="rotate(149.96499803848565 519.5426676314579 225.06913257133243)" /><polygon points="344.2101841467039,347.69735592019833 368.0299685448946,371.517140318389 344.2101841467039,395.3369247165797 320.39039974851323,371.517140318389" fill="#ffb444" opacity="0.2348617907334119" transform="rotate(317.61037627235055 344.2101841467039 371.517140318389)" />
    
    <rect width="800" height="450" fill="url(#vignette)" />
    <rect width="800" height="450" filter="url(#grain)" opacity="0.5" />
  
    <text x="786" y="436" text-anchor="end" font-family="Sora, sans-serif" font-weight="800" font-size="14" letter-spacing="2" fill="#ffffff" opacity="0.35">ARCYN</text>
  </svg>