<svg xmlns="http://www.w3.org/2000/svg" viewBox="0 0 800 450" width="800" height="450">
    <defs>
    <linearGradient id="bg" x1="0%" y1="0%" x2="100%" y2="100%">
      <stop offset="0%" stop-color="rgb(68, 50, 140)" />
      <stop offset="55%" stop-color="#0a0a14" />
      <stop offset="100%" stop-color="#05050a" />
    </linearGradient>
    <radialGradient id="glow" cx="50%" cy="35%" r="65%">
      <stop offset="0%" stop-color="#7c5cff" stop-opacity="0.55" />
      <stop offset="100%" stop-color="#7c5cff" stop-opacity="0" />
    </radialGradient>
    <radialGradient id="vignette" cx="50%" cy="45%" r="75%">
      <stop offset="55%" stop-color="#000000" stop-opacity="0" />
      <stop offset="100%" stop-color="#000000" stop-opacity="0.55" />
    </radialGradient>
    <filter id="grain">
      <feTurbulence type="fractalNoise" baseFrequency="0.85" numOctaves="2" stitchTiles="stitch" result="noise" />
      <feColorMatrix in="noise" type="matrix" values="0 0 0 0 1  0 0 0 0 1  0 0 0 0 1  0 0 0 0.05 0" />
    </filter>
    <filter id="blur"><feGaussianBlur stdDeviation="8" /></filter>
  </defs>
    
    <rect width="800" height="450" fill="url(#bg)" />
    <rect width="800" height="450" fill="url(#glow)" />
  
    <circle cx="440.00000000000006" cy="202.5" r="70" fill="#7c5cff" opacity="0.35" filter="url(#blur)" /><polygon points="587.1110713120046,162.8917045319295 609.5557307369503,185.3363639568752 587.1110713120046,207.78102338182092 564.6664118870589,185.3363639568752" fill="#ff5c8a" opacity="0.3715549086406827" transform="rotate(284.2304713279009 587.1110713120046 185.3363639568752)" /><polygon points="375.76125464266073,141.79146295752264 407.8041476067519,173.8343559216138 375.76125464266073,205.87724888570494 343.7183616785696,173.8343559216138" fill="#7c5cff" opacity="0.19025944540742784" transform="rotate(236.16988166235387 375.76125464266073 173.8343559216138)" /><polygon points="225.88139011123974,210.43293925473068 257.3512963784841,241.90284552197505 225.88139011123974,273.3727517892194 194.41148384399537,241.90284552197505" fill="#ff5c8a" opacity="0.34665380634367465" transform="rotate(309.5712260529399 225.88139011123974 241.90284552197505)" /><polygon points="239.622365080854,166.64347759968265 261.91132593118596,188.9324384500146 239.622365080854,211.22139930034652 217.33340423052206,188.9324384500146" fill="#7c5cff" opacity="0.3232296213461086" transform="rotate(301.8734994158149 239.622365080854 188.9324384500146)" /><polygon points="500.3030139064266,226.49768686004018 534.4588234499878,260.65349640360137 500.3030139064266,294.80930594716256 466.1472043628654,260.65349640360137" fill="#ff5c8a" opacity="0.22832780442666262" transform="rotate(207.78401009738445 500.3030139064266 260.65349640360137)" /><polygon points="604.463673032768,402.58654183527955 630.107849946659,428.23071874917053 604.463673032768,453.8748956630615 578.819496118877,428.23071874917053" fill="#7c5cff" opacity="0.28306004900485277" transform="rotate(331.3294404465705 604.463673032768 428.23071874917053)" /><polygon points="722.4438981524837,124.73808707018918 738.9769284673204,141.27111738502583 722.4438981524837,157.80414769986248 705.9108678376471,141.27111738502583" fill="#ff5c8a" opacity="0.21871515492210164" transform="rotate(6.14238889887929 722.4438981524837 141.27111738502583)" /><polygon points="594.0190763435029,160.06346433168855 611.2283144498878,177.27270243807342 594.0190763435029,194.4819405444583 576.809838237118,177.27270243807342" fill="#7c5cff" opacity="0.30246709200553595" transform="rotate(20.204336531460285 594.0190763435029 177.27270243807342)" /><polygon points="617.0728615009945,-18.153639448487013 642.8566904542755,7.630189504794032 617.0728615009945,33.41401845807508 591.2890325477134,7.630189504794032" fill="#ff5c8a" opacity="0.2069773588515818" transform="rotate(167.78566824272275 617.0728615009945 7.630189504794032)" /><polygon points="433.7396409749289,316.10082262034837 450.5219688820888,332.8831505275083 433.7396409749289,349.6654784346682 416.95731306776895,332.8831505275083" fill="#7c5cff" opacity="0.36895168259041383" transform="rotate(11.583506371825933 433.7396409749289 332.8831505275083)" />
    
    <rect width="800" height="450" fill="url(#vignette)" />
    <rect width="800" height="450" filter="url(#grain)" opacity="0.5" />
  
    <text x="786" y="436" text-anchor="end" font-family="Sora, sans-serif" font-weight="800" font-size="14" letter-spacing="2" fill="#ffffff" opacity="0.35">ARCYN</text>
  </svg>