<svg xmlns="http://www.w3.org/2000/svg" viewBox="0 0 1600 480" width="1600" height="480">
    <defs>
    <linearGradient id="bg" x1="0%" y1="0%" x2="100%" y2="100%">
      <stop offset="0%" stop-color="rgb(68, 50, 140)" />
      <stop offset="55%" stop-color="#0a0a14" />
      <stop offset="100%" stop-color="#05050a" />
    </linearGradient>
    <radialGradient id="glow" cx="50%" cy="35%" r="65%">
      <stop offset="0%" stop-color="#7c5cff" stop-opacity="0.55" />
      <stop offset="100%" stop-color="#7c5cff" stop-opacity="0" />
    </radialGradient>
    <radialGradient id="vignette" cx="50%" cy="45%" r="75%">
      <stop offset="55%" stop-color="#000000" stop-opacity="0" />
      <stop offset="100%" stop-color="#000000" stop-opacity="0.55" />
    </radialGradient>
    <filter id="grain">
      <feTurbulence type="fractalNoise" baseFrequency="0.85" numOctaves="2" stitchTiles="stitch" result="noise" />
      <feColorMatrix in="noise" type="matrix" values="0 0 0 0 1  0 0 0 0 1  0 0 0 0 1  0 0 0 0.05 0" />
    </filter>
    <filter id="blur"><feGaussianBlur stdDeviation="8" /></filter>
  </defs>
    
    <rect width="1600" height="480" fill="url(#bg)" />
    <rect width="1600" height="480" fill="url(#glow)" />
  
    <circle cx="880.0000000000001" cy="216" r="102.241544067631" fill="#7c5cff" opacity="0.35" filter="url(#blur)" /><polygon points="780.8046269014657,16.643285547510686 811.8260090987377,47.66466774478272 780.8046269014657,78.68604994205475 749.7832447041936,47.66466774478272" fill="#ff5c8a" opacity="0.3070535042276606" transform="rotate(43.98477089591324 780.8046269014657 47.66466774478272)" /><polygon points="892.7667211626624,162.2097584609441 911.4352973035504,180.87833460183214 892.7667211626624,199.54691074272017 874.0981450217744,180.87833460183214" fill="#7c5cff" opacity="0.19785004505654796" transform="rotate(42.29882634244859 892.7667211626624 180.87833460183214)" /><polygon points="705.5762535659718,478.12247691059906 742.7400828567455,515.2863062013728 705.5762535659718,552.4501354921465 668.4124242751981,515.2863062013728" fill="#ff5c8a" opacity="0.26443301590159535" transform="rotate(143.1255134101957 705.5762535659718 515.2863062013728)" /><polygon points="963.8943299618223,199.2500215717204 1000.4892158559197,235.84490746581778 963.8943299618223,272.43979335991514 927.299444067725,235.84490746581778" fill="#7c5cff" opacity="0.3794360001408495" transform="rotate(141.04551061056554 963.8943299618223 235.84490746581778)" /><polygon points="840.0990843348012,146.03204115476464 862.4577251042978,168.3906819242612 840.0990843348012,190.74932269375776 817.7404435653046,168.3906819242612" fill="#ff5c8a" opacity="0.21168661356903612" transform="rotate(16.344830878078938 840.0990843348012 168.3906819242612)" /><polygon points="1204.0048517938342,398.32883572477283 1240.3097569653403,434.63374089627894 1204.0048517938342,470.93864606778504 1167.699946622328,434.63374089627894" fill="#7c5cff" opacity="0.3337608586368151" transform="rotate(156.8056902475655 1204.0048517938342 434.63374089627894)" /><polygon points="1173.757857777633,-57.019092679074646 1195.5203249766382,-35.25662548006946 1173.757857777633,-13.494158281064273 1151.9953905786278,-35.25662548006946" fill="#ff5c8a" opacity="0.24547624099766835" transform="rotate(140.0365123618394 1173.757857777633 -35.25662548006946)" /><polygon points="1109.2919060931786,239.3966913292783 1125.4450102736487,255.5497955097484 1109.2919060931786,271.7028996902185 1093.1388019127085,255.5497955097484" fill="#7c5cff" opacity="0.31203089125454425" transform="rotate(282.26983454078436 1109.2919060931786 255.5497955097484)" /><polygon points="1063.4119929170517,16.53562802309193 1098.2742901311537,51.39792523719393 1063.4119929170517,86.26022245129593 1028.5496957029497,51.39792523719393" fill="#ff5c8a" opacity="0.27905814193189143" transform="rotate(22.79226053506136 1063.4119929170517 51.39792523719393)" /><polygon points="631.3055080916929,450.8182933621239 646.3877926656241,465.90057793605513 631.3055080916929,480.9828625099864 616.2232235177617,465.90057793605513" fill="#7c5cff" opacity="0.22981636482989415" transform="rotate(159.31164544075727 631.3055080916929 465.90057793605513)" /><polygon points="873.2498966674746,262.32451604456026 892.2740495484747,281.34866892556045 873.2498966674746,300.37282180656064 854.2257437864744,281.34866892556045" fill="#ff5c8a" opacity="0.2798511303914711" transform="rotate(62.28842932730913 873.2498966674746 281.34866892556045)" /><polygon points="875.8239040438656,230.34588554963238 899.671015309972,254.19299681573875 875.8239040438656,278.0401080818451 851.9767927777592,254.19299681573875" fill="#7c5cff" opacity="0.3704192830552347" transform="rotate(69.59419336169958 875.8239040438656 254.19299681573875)" /><polygon points="1112.1323933004962,430.944968337501 1127.1643439246902,445.976918961695 1112.1323933004962,461.008869585889 1097.1004426763022,445.976918961695" fill="#ff5c8a" opacity="0.1859157948126085" transform="rotate(110.14490079134703 1112.1323933004962 445.976918961695)" /><polygon points="873.6451790371103,-144.47000546102925 894.655563801167,-123.45962069697259 873.6451790371103,-102.44923593291594 852.6347942730537,-123.45962069697259" fill="#7c5cff" opacity="0.39321141644148155" transform="rotate(50.97712651826441 873.6451790371103 -123.45962069697259)" /><polygon points="697.969002008029,511.13259736562975 732.1903528143285,545.3539481719293 697.969002008029,579.575298978229 663.7476512017294,545.3539481719293" fill="#ff5c8a" opacity="0.37858662475598975" transform="rotate(268.0718166846782 697.969002008029 545.3539481719293)" />
    
    <rect width="1600" height="480" fill="url(#vignette)" />
    <rect width="1600" height="480" filter="url(#grain)" opacity="0.5" />
  
    <text x="1586" y="466" text-anchor="end" font-family="Sora, sans-serif" font-weight="800" font-size="14" letter-spacing="2" fill="#ffffff" opacity="0.35">ARCYN</text>
  </svg>