<svg xmlns="http://www.w3.org/2000/svg" viewBox="0 0 1600 480" width="1600" height="480">
    <defs>
    <linearGradient id="bg" x1="0%" y1="0%" x2="100%" y2="100%">
      <stop offset="0%" stop-color="rgb(68, 50, 140)" />
      <stop offset="55%" stop-color="#0a0a14" />
      <stop offset="100%" stop-color="#05050a" />
    </linearGradient>
    <radialGradient id="glow" cx="50%" cy="35%" r="65%">
      <stop offset="0%" stop-color="#7c5cff" stop-opacity="0.55" />
      <stop offset="100%" stop-color="#7c5cff" stop-opacity="0" />
    </radialGradient>
    <radialGradient id="vignette" cx="50%" cy="45%" r="75%">
      <stop offset="55%" stop-color="#000000" stop-opacity="0" />
      <stop offset="100%" stop-color="#000000" stop-opacity="0.55" />
    </radialGradient>
    <filter id="grain">
      <feTurbulence type="fractalNoise" baseFrequency="0.85" numOctaves="2" stitchTiles="stitch" result="noise" />
      <feColorMatrix in="noise" type="matrix" values="0 0 0 0 1  0 0 0 0 1  0 0 0 0 1  0 0 0 0.05 0" />
    </filter>
    <filter id="blur"><feGaussianBlur stdDeviation="8" /></filter>
  </defs>
    
    <rect width="1600" height="480" fill="url(#bg)" />
    <rect width="1600" height="480" fill="url(#glow)" />
  
    <circle cx="935.8198726549745" cy="105.6" r="46" fill="#7c5cff" opacity="0.7" /><polygon points="0,480 0,200.49893980622292 320,230.68017016723752 640,256.8475097671151 960,223.86350728198886 1280,238.96758327260613 1600,253.40717234238983 1600,480" fill="rgb(13, 84, 95)" opacity="0.55" /><polygon points="0,480 0,274.02388753116134 320,309.7255940240622 640,318.5226239186526 960,275.5917977714539 1280,279.4194496071339 1600,269.3939125478268 1600,480" fill="rgb(68, 50, 140)" opacity="0.7000000000000001" /><polygon points="0,480 0,373.8180054523051 320,387.7571827241779 640,393.0883010740578 960,391.1462455487252 1280,395.73162928327923 1600,394.9645850068331 1600,480" fill="rgb(23, 147, 166)" opacity="0.8500000000000001" />
    
    <rect width="1600" height="480" fill="url(#vignette)" />
    <rect width="1600" height="480" filter="url(#grain)" opacity="0.5" />
  
    <text x="1586" y="466" text-anchor="end" font-family="Sora, sans-serif" font-weight="800" font-size="14" letter-spacing="2" fill="#ffffff" opacity="0.35">ARCYN</text>
  </svg>