<svg xmlns="http://www.w3.org/2000/svg" viewBox="0 0 1600 480" width="1600" height="480">
    <defs>
    <linearGradient id="bg" x1="0%" y1="0%" x2="100%" y2="100%">
      <stop offset="0%" stop-color="rgb(18, 116, 130)" />
      <stop offset="55%" stop-color="#0a0a14" />
      <stop offset="100%" stop-color="#05050a" />
    </linearGradient>
    <radialGradient id="glow" cx="50%" cy="35%" r="65%">
      <stop offset="0%" stop-color="#22d3ee" stop-opacity="0.55" />
      <stop offset="100%" stop-color="#22d3ee" stop-opacity="0" />
    </radialGradient>
    <radialGradient id="vignette" cx="50%" cy="45%" r="75%">
      <stop offset="55%" stop-color="#000000" stop-opacity="0" />
      <stop offset="100%" stop-color="#000000" stop-opacity="0.55" />
    </radialGradient>
    <filter id="grain">
      <feTurbulence type="fractalNoise" baseFrequency="0.85" numOctaves="2" stitchTiles="stitch" result="noise" />
      <feColorMatrix in="noise" type="matrix" values="0 0 0 0 1  0 0 0 0 1  0 0 0 0 1  0 0 0 0.05 0" />
    </filter>
    <filter id="blur"><feGaussianBlur stdDeviation="8" /></filter>
  </defs>
    
    <rect width="1600" height="480" fill="url(#bg)" />
    <rect width="1600" height="480" fill="url(#glow)" />
  
    <line x1="0" y1="480" x2="680" y2="264" stroke="#22d3ee" stroke-opacity="0.22" stroke-width="1" /><line x1="160" y1="480" x2="704" y2="264" stroke="#22d3ee" stroke-opacity="0.22" stroke-width="1" /><line x1="320" y1="480" x2="728" y2="264" stroke="#22d3ee" stroke-opacity="0.22" stroke-width="1" /><line x1="480" y1="480" x2="752" y2="264" stroke="#22d3ee" stroke-opacity="0.22" stroke-width="1" /><line x1="640" y1="480" x2="776" y2="264" stroke="#22d3ee" stroke-opacity="0.22" stroke-width="1" /><line x1="800" y1="480" x2="800" y2="264" stroke="#22d3ee" stroke-opacity="0.22" stroke-width="1" /><line x1="960" y1="480" x2="824" y2="264" stroke="#22d3ee" stroke-opacity="0.22" stroke-width="1" /><line x1="1120" y1="480" x2="848" y2="264" stroke="#22d3ee" stroke-opacity="0.22" stroke-width="1" /><line x1="1280" y1="480" x2="872" y2="264" stroke="#22d3ee" stroke-opacity="0.22" stroke-width="1" /><line x1="1440" y1="480" x2="896" y2="264" stroke="#22d3ee" stroke-opacity="0.22" stroke-width="1" /><line x1="1600" y1="480" x2="920" y2="264" stroke="#22d3ee" stroke-opacity="0.22" stroke-width="1" /><line x1="0" y1="264" x2="1600" y2="264" stroke="#22d3ee" stroke-opacity="0.1" stroke-width="1" /><line x1="0" y1="307.2" x2="1600" y2="307.2" stroke="#22d3ee" stroke-opacity="0.13" stroke-width="1" /><line x1="0" y1="350.4" x2="1600" y2="350.4" stroke="#22d3ee" stroke-opacity="0.16" stroke-width="1" /><line x1="0" y1="393.6" x2="1600" y2="393.6" stroke="#22d3ee" stroke-opacity="0.19" stroke-width="1" /><line x1="0" y1="436.8" x2="1600" y2="436.8" stroke="#22d3ee" stroke-opacity="0.22" stroke-width="1" /><line x1="0" y1="480" x2="1600" y2="480" stroke="#22d3ee" stroke-opacity="0.25" stroke-width="1" /><rect x="1372.3386991769075" y="198.90724264383317" width="30.420092158019543" height="30.420092158019543" fill="#ffb444" opacity="0.5" /><rect x="1578.452167659998" y="36.369350396096706" width="39.07039297139272" height="39.07039297139272" fill="#ffb444" opacity="0.5" /><rect x="725.8829537779093" y="192.3313978135586" width="23.81930075539276" height="23.81930075539276" fill="#ffb444" opacity="0.5" /><rect x="897.9185950011015" y="187.2187108129263" width="22.304090701509267" height="22.304090701509267" fill="#ffb444" opacity="0.5" /><rect x="130.6144531816244" y="87.48068161904813" width="25.85737511422485" height="25.85737511422485" fill="#ffb444" opacity="0.5" />
    
    <rect width="1600" height="480" fill="url(#vignette)" />
    <rect width="1600" height="480" filter="url(#grain)" opacity="0.5" />
  
    <text x="1586" y="466" text-anchor="end" font-family="Sora, sans-serif" font-weight="800" font-size="14" letter-spacing="2" fill="#ffffff" opacity="0.35">ARCYN</text>
  </svg>