<svg xmlns="http://www.w3.org/2000/svg" viewBox="0 0 1600 480" width="1600" height="480">
    <defs>
    <linearGradient id="bg" x1="0%" y1="0%" x2="100%" y2="100%">
      <stop offset="0%" stop-color="rgb(29, 123, 88)" />
      <stop offset="55%" stop-color="#0a0a14" />
      <stop offset="100%" stop-color="#05050a" />
    </linearGradient>
    <radialGradient id="glow" cx="50%" cy="35%" r="65%">
      <stop offset="0%" stop-color="#35e0a1" stop-opacity="0.55" />
      <stop offset="100%" stop-color="#35e0a1" stop-opacity="0" />
    </radialGradient>
    <radialGradient id="vignette" cx="50%" cy="45%" r="75%">
      <stop offset="55%" stop-color="#000000" stop-opacity="0" />
      <stop offset="100%" stop-color="#000000" stop-opacity="0.55" />
    </radialGradient>
    <filter id="grain">
      <feTurbulence type="fractalNoise" baseFrequency="0.85" numOctaves="2" stitchTiles="stitch" result="noise" />
      <feColorMatrix in="noise" type="matrix" values="0 0 0 0 1  0 0 0 0 1  0 0 0 0 1  0 0 0 0.05 0" />
    </filter>
    <filter id="blur"><feGaussianBlur stdDeviation="8" /></filter>
  </defs>
    
    <rect width="1600" height="480" fill="url(#bg)" />
    <rect width="1600" height="480" fill="url(#glow)" />
  
    <rect x="50" y="0" width="60" height="60" fill="#35e0a1" opacity="0.14" /><rect x="170" y="0" width="60" height="60" fill="#35e0a1" opacity="0.14" /><rect x="290" y="0" width="60" height="60" fill="#35e0a1" opacity="0.14" /><rect x="410" y="0" width="60" height="60" fill="#35e0a1" opacity="0.14" /><rect x="530" y="0" width="60" height="60" fill="#35e0a1" opacity="0.14" /><rect x="650" y="0" width="60" height="60" fill="#35e0a1" opacity="0.14" /><rect x="770" y="0" width="60" height="60" fill="#35e0a1" opacity="0.14" /><rect x="890" y="0" width="60" height="60" fill="#35e0a1" opacity="0.14" /><rect x="1010" y="0" width="60" height="60" fill="#35e0a1" opacity="0.14" /><rect x="1130" y="0" width="60" height="60" fill="#35e0a1" opacity="0.14" /><rect x="1250" y="0" width="60" height="60" fill="#35e0a1" opacity="0.14" /><rect x="1370" y="0" width="60" height="60" fill="#35e0a1" opacity="0.14" /><rect x="1490" y="0" width="60" height="60" fill="#35e0a1" opacity="0.14" /><rect x="-10" y="60" width="60" height="60" fill="#35e0a1" opacity="0.14" /><rect x="110" y="60" width="60" height="60" fill="#35e0a1" opacity="0.14" /><rect x="230" y="60" width="60" height="60" fill="#35e0a1" opacity="0.14" /><rect x="350" y="60" width="60" height="60" fill="#35e0a1" opacity="0.14" /><rect x="470" y="60" width="60" height="60" fill="#35e0a1" opacity="0.14" /><rect x="590" y="60" width="60" height="60" fill="#35e0a1" opacity="0.14" /><rect x="710" y="60" width="60" height="60" fill="#35e0a1" opacity="0.14" /><rect x="830" y="60" width="60" height="60" fill="#35e0a1" opacity="0.14" /><rect x="950" y="60" width="60" height="60" fill="#35e0a1" opacity="0.14" /><rect x="1070" y="60" width="60" height="60" fill="#35e0a1" opacity="0.14" /><rect x="1190" y="60" width="60" height="60" fill="#35e0a1" opacity="0.14" /><rect x="1310" y="60" width="60" height="60" fill="#35e0a1" opacity="0.14" /><rect x="1430" y="60" width="60" height="60" fill="#35e0a1" opacity="0.14" /><rect x="1550" y="60" width="60" height="60" fill="#35e0a1" opacity="0.14" /><rect x="50" y="120" width="60" height="60" fill="#35e0a1" opacity="0.14" /><rect x="170" y="120" width="60" height="60" fill="#35e0a1" opacity="0.14" /><rect x="290" y="120" width="60" height="60" fill="#35e0a1" opacity="0.14" /><rect x="410" y="120" width="60" height="60" fill="#35e0a1" opacity="0.14" /><rect x="530" y="120" width="60" height="60" fill="#35e0a1" opacity="0.14" /><rect x="650" y="120" width="60" height="60" fill="#35e0a1" opacity="0.14" /><rect x="770" y="120" width="60" height="60" fill="#35e0a1" opacity="0.14" /><rect x="890" y="120" width="60" height="60" fill="#35e0a1" opacity="0.14" /><rect x="1010" y="120" width="60" height="60" fill="#35e0a1" opacity="0.14" /><rect x="1130" y="120" width="60" height="60" fill="#35e0a1" opacity="0.14" /><rect x="1250" y="120" width="60" height="60" fill="#35e0a1" opacity="0.14" /><rect x="1370" y="120" width="60" height="60" fill="#35e0a1" opacity="0.14" /><rect x="1490" y="120" width="60" height="60" fill="#35e0a1" opacity="0.14" /><rect x="-10" y="180" width="60" height="60" fill="#35e0a1" opacity="0.14" /><rect x="110" y="180" width="60" height="60" fill="#35e0a1" opacity="0.14" /><rect x="230" y="180" width="60" height="60" fill="#35e0a1" opacity="0.14" /><rect x="350" y="180" width="60" height="60" fill="#35e0a1" opacity="0.14" /><rect x="470" y="180" width="60" height="60" fill="#35e0a1" opacity="0.14" /><rect x="590" y="180" width="60" height="60" fill="#35e0a1" opacity="0.14" /><rect x="710" y="180" width="60" height="60" fill="#35e0a1" opacity="0.14" /><rect x="830" y="180" width="60" height="60" fill="#35e0a1" opacity="0.14" /><rect x="950" y="180" width="60" height="60" fill="#35e0a1" opacity="0.14" /><rect x="1070" y="180" width="60" height="60" fill="#35e0a1" opacity="0.14" /><rect x="1190" y="180" width="60" height="60" fill="#35e0a1" opacity="0.14" /><rect x="1310" y="180" width="60" height="60" fill="#35e0a1" opacity="0.14" /><rect x="1430" y="180" width="60" height="60" fill="#35e0a1" opacity="0.14" /><rect x="1550" y="180" width="60" height="60" fill="#35e0a1" opacity="0.14" /><rect x="50" y="240" width="60" height="60" fill="#35e0a1" opacity="0.14" /><rect x="170" y="240" width="60" height="60" fill="#35e0a1" opacity="0.14" /><rect x="290" y="240" width="60" height="60" fill="#35e0a1" opacity="0.14" /><rect x="410" y="240" width="60" height="60" fill="#35e0a1" opacity="0.14" /><rect x="530" y="240" width="60" height="60" fill="#35e0a1" opacity="0.14" /><rect x="650" y="240" width="60" height="60" fill="#35e0a1" opacity="0.14" /><rect x="770" y="240" width="60" height="60" fill="#35e0a1" opacity="0.14" /><rect x="890" y="240" width="60" height="60" fill="#35e0a1" opacity="0.14" /><rect x="1010" y="240" width="60" height="60" fill="#35e0a1" opacity="0.14" /><rect x="1130" y="240" width="60" height="60" fill="#35e0a1" opacity="0.14" /><rect x="1250" y="240" width="60" height="60" fill="#35e0a1" opacity="0.14" /><rect x="1370" y="240" width="60" height="60" fill="#35e0a1" opacity="0.14" /><rect x="1490" y="240" width="60" height="60" fill="#35e0a1" opacity="0.14" /><rect x="-10" y="300" width="60" height="60" fill="#35e0a1" opacity="0.14" /><rect x="110" y="300" width="60" height="60" fill="#35e0a1" opacity="0.14" /><rect x="230" y="300" width="60" height="60" fill="#35e0a1" opacity="0.14" /><rect x="350" y="300" width="60" height="60" fill="#35e0a1" opacity="0.14" /><rect x="470" y="300" width="60" height="60" fill="#35e0a1" opacity="0.14" /><rect x="590" y="300" width="60" height="60" fill="#35e0a1" opacity="0.14" /><rect x="710" y="300" width="60" height="60" fill="#35e0a1" opacity="0.14" /><rect x="830" y="300" width="60" height="60" fill="#35e0a1" opacity="0.14" /><rect x="950" y="300" width="60" height="60" fill="#35e0a1" opacity="0.14" /><rect x="1070" y="300" width="60" height="60" fill="#35e0a1" opacity="0.14" /><rect x="1190" y="300" width="60" height="60" fill="#35e0a1" opacity="0.14" /><rect x="1310" y="300" width="60" height="60" fill="#35e0a1" opacity="0.14" /><rect x="1430" y="300" width="60" height="60" fill="#35e0a1" opacity="0.14" /><rect x="1550" y="300" width="60" height="60" fill="#35e0a1" opacity="0.14" /><rect x="50" y="360" width="60" height="60" fill="#35e0a1" opacity="0.14" /><rect x="170" y="360" width="60" height="60" fill="#35e0a1" opacity="0.14" /><rect x="290" y="360" width="60" height="60" fill="#35e0a1" opacity="0.14" /><rect x="410" y="360" width="60" height="60" fill="#35e0a1" opacity="0.14" /><rect x="530" y="360" width="60" height="60" fill="#35e0a1" opacity="0.14" /><rect x="650" y="360" width="60" height="60" fill="#35e0a1" opacity="0.14" /><rect x="770" y="360" width="60" height="60" fill="#35e0a1" opacity="0.14" /><rect x="890" y="360" width="60" height="60" fill="#35e0a1" opacity="0.14" /><rect x="1010" y="360" width="60" height="60" fill="#35e0a1" opacity="0.14" /><rect x="1130" y="360" width="60" height="60" fill="#35e0a1" opacity="0.14" /><rect x="1250" y="360" width="60" height="60" fill="#35e0a1" opacity="0.14" /><rect x="1370" y="360" width="60" height="60" fill="#35e0a1" opacity="0.14" /><rect x="1490" y="360" width="60" height="60" fill="#35e0a1" opacity="0.14" /><rect x="-10" y="420" width="60" height="60" fill="#35e0a1" opacity="0.14" /><rect x="110" y="420" width="60" height="60" fill="#35e0a1" opacity="0.14" /><rect x="230" y="420" width="60" height="60" fill="#35e0a1" opacity="0.14" /><rect x="350" y="420" width="60" height="60" fill="#35e0a1" opacity="0.14" /><rect x="470" y="420" width="60" height="60" fill="#35e0a1" opacity="0.14" /><rect x="590" y="420" width="60" height="60" fill="#35e0a1" opacity="0.14" /><rect x="710" y="420" width="60" height="60" fill="#35e0a1" opacity="0.14" /><rect x="830" y="420" width="60" height="60" fill="#35e0a1" opacity="0.14" /><rect x="950" y="420" width="60" height="60" fill="#35e0a1" opacity="0.14" /><rect x="1070" y="420" width="60" height="60" fill="#35e0a1" opacity="0.14" /><rect x="1190" y="420" width="60" height="60" fill="#35e0a1" opacity="0.14" /><rect x="1310" y="420" width="60" height="60" fill="#35e0a1" opacity="0.14" /><rect x="1430" y="420" width="60" height="60" fill="#35e0a1" opacity="0.14" /><rect x="1550" y="420" width="60" height="60" fill="#35e0a1" opacity="0.14" /><circle cx="1400" cy="450" r="18" fill="#fff" opacity="0.85" /><circle cx="1100" cy="150" r="18" fill="#22d3ee" opacity="0.55" /><circle cx="1520" cy="30" r="18" fill="#fff" opacity="0.85" /><circle cx="800" cy="450" r="18" fill="#22d3ee" opacity="0.55" /><circle cx="740" cy="450" r="18" fill="#fff" opacity="0.85" /><circle cx="620" cy="90" r="18" fill="#22d3ee" opacity="0.55" /><circle cx="80" cy="210" r="18" fill="#fff" opacity="0.85" /><circle cx="1280" cy="390" r="18" fill="#22d3ee" opacity="0.55" /><circle cx="140" cy="150" r="18" fill="#fff" opacity="0.85" /><circle cx="680" cy="90" r="18" fill="#22d3ee" opacity="0.55" /><circle cx="1040" cy="330" r="18" fill="#fff" opacity="0.85" /><circle cx="140" cy="90" r="18" fill="#22d3ee" opacity="0.55" /><circle cx="140" cy="210" r="18" fill="#fff" opacity="0.85" />
    
    <rect width="1600" height="480" fill="url(#vignette)" />
    <rect width="1600" height="480" filter="url(#grain)" opacity="0.5" />
  
    <text x="1586" y="466" text-anchor="end" font-family="Sora, sans-serif" font-weight="800" font-size="14" letter-spacing="2" fill="#ffffff" opacity="0.35">ARCYN</text>
  </svg>