<svg xmlns="http://www.w3.org/2000/svg" viewBox="0 0 1600 480" width="1600" height="480">
    <defs>
    <linearGradient id="bg" x1="0%" y1="0%" x2="100%" y2="100%">
      <stop offset="0%" stop-color="rgb(140, 99, 37)" />
      <stop offset="55%" stop-color="#0a0a14" />
      <stop offset="100%" stop-color="#05050a" />
    </linearGradient>
    <radialGradient id="glow" cx="50%" cy="35%" r="65%">
      <stop offset="0%" stop-color="#ffb444" stop-opacity="0.55" />
      <stop offset="100%" stop-color="#ffb444" stop-opacity="0" />
    </radialGradient>
    <radialGradient id="vignette" cx="50%" cy="45%" r="75%">
      <stop offset="55%" stop-color="#000000" stop-opacity="0" />
      <stop offset="100%" stop-color="#000000" stop-opacity="0.55" />
    </radialGradient>
    <filter id="grain">
      <feTurbulence type="fractalNoise" baseFrequency="0.85" numOctaves="2" stitchTiles="stitch" result="noise" />
      <feColorMatrix in="noise" type="matrix" values="0 0 0 0 1  0 0 0 0 1  0 0 0 0 1  0 0 0 0.05 0" />
    </filter>
    <filter id="blur"><feGaussianBlur stdDeviation="8" /></filter>
  </defs>
    
    <rect width="1600" height="480" fill="url(#bg)" />
    <rect width="1600" height="480" fill="url(#glow)" />
  
    <rect x="-43.53107199072838" y="-43.53107199072838" width="87.06214398145676" height="87.06214398145676" rx="15.671185916662216" fill="#ffb444" opacity="0.24468773549422623" transform="translate(81.48499839007854 72.42177564650774) rotate(19.45311203598976)" /><rect x="-37.288369645830244" y="-37.288369645830244" width="74.57673929166049" height="74.57673929166049" rx="13.423813072498888" fill="#22d3ee" opacity="0.21228579945396633" transform="translate(801.4119416475296 384.02001332491636) rotate(-1.2080163601785898)" /><rect x="-32.75247892132029" y="-32.75247892132029" width="65.50495784264058" height="65.50495784264058" rx="11.790892411675303" fill="#22d3ee" opacity="0.20766766170039774" transform="translate(535.7727859169245 111.49643037468195) rotate(-4.396716644987464)" /><rect x="-51.130523721221834" y="-51.130523721221834" width="102.26104744244367" height="102.26104744244367" rx="18.40698853963986" fill="#ffb444" opacity="0.21315277536399663" transform="translate(636.1911579966545 273.32039181143045) rotate(8.87039989233017)" /><rect x="-35.30189235229045" y="-35.30189235229045" width="70.6037847045809" height="70.6037847045809" rx="12.708681246824563" fill="#22d3ee" opacity="0.2925984376203269" transform="translate(1375.5844123661518 450.42315758764744) rotate(-15.077222436666489)" /><rect x="-24.387761887628585" y="-24.387761887628585" width="48.77552377525717" height="48.77552377525717" rx="8.77959427954629" fill="#22d3ee" opacity="0.2618542537698522" transform="translate(913.1466940045357 359.47135884314775) rotate(-3.472947394475341)" /><rect x="-33.18829546798952" y="-33.18829546798952" width="66.37659093597904" height="66.37659093597904" rx="11.947786368476226" fill="#ffb444" opacity="0.15479508554562926" transform="translate(1086.5621756762266 452.80640445649624) rotate(-9.954904168844223)" /><rect x="-35.15205628471449" y="-35.15205628471449" width="70.30411256942898" height="70.30411256942898" rx="12.654740262497215" fill="#22d3ee" opacity="0.1818601272534579" transform="translate(1271.9697251915932 122.71507546305656) rotate(-7.616618815809488)" /><rect x="-24.609904097160324" y="-24.609904097160324" width="49.21980819432065" height="49.21980819432065" rx="8.859565474977716" fill="#22d3ee" opacity="0.28582602728623896" transform="translate(600.2076607197523 68.52704789489508) rotate(9.069029856473207)" /><rect x="-40.97954952274449" y="-40.97954952274449" width="81.95909904548898" height="81.95909904548898" rx="14.752637828188016" fill="#ffb444" opacity="0.30369424844626336" transform="translate(16.465746238827705 397.63336423784494) rotate(12.542992327362299)" /><rect x="-36.95101518067531" y="-36.95101518067531" width="73.90203036135063" height="73.90203036135063" rx="13.302365465043112" fill="#22d3ee" opacity="0.15399352519307286" transform="translate(66.47886261343956 467.05994836986065) rotate(-17.617422407492995)" /><rect x="-21.24987029004842" y="-21.24987029004842" width="42.49974058009684" height="42.49974058009684" rx="7.649953304417431" fill="#22d3ee" opacity="0.29462615197058767" transform="translate(715.7879944890738 138.68844475597143) rotate(11.856527514755726)" /><rect x="-43.46398645429872" y="-43.46398645429872" width="86.92797290859744" height="86.92797290859744" rx="15.64703512354754" fill="#ffb444" opacity="0.2905381386214867" transform="translate(1257.483434677124 1.8805759772658348) rotate(-13.456415422260761)" /><rect x="-23.94889089744538" y="-23.94889089744538" width="47.89778179489076" height="47.89778179489076" rx="8.621600723080336" fill="#22d3ee" opacity="0.297203115252778" transform="translate(602.0821750164032 231.41077905893326) rotate(10.745179019868374)" /><rect x="-23.832342674722895" y="-23.832342674722895" width="47.66468534944579" height="47.66468534944579" rx="8.579643362900242" fill="#22d3ee" opacity="0.14918119010049852" transform="translate(139.16616924107075 373.34946278482676) rotate(-2.3924647085368633)" /><rect x="-45.91593549470417" y="-45.91593549470417" width="91.83187098940834" height="91.83187098940834" rx="16.5297367780935" fill="#ffb444" opacity="0.20897894461173566" transform="translate(913.7153338640928 276.587289981544) rotate(-7.280485043302178)" /><rect x="-28.660643830662593" y="-28.660643830662593" width="57.32128766132519" height="57.32128766132519" rx="10.317831779038533" fill="#22d3ee" opacity="0.2705219835275784" transform="translate(1346.1369946599007 410.54338943213224) rotate(-5.841932566836476)" /><rect x="-21.61203296855092" y="-21.61203296855092" width="43.22406593710184" height="43.22406593710184" rx="7.780331868678331" fill="#22d3ee" opacity="0.1685093679698184" transform="translate(528.1335614621639 373.1913484632969) rotate(-13.6882340349257)" /><rect x="-43.53019529720768" y="-43.53019529720768" width="87.06039059441537" height="87.06039059441537" rx="15.670870306994765" fill="#ffb444" opacity="0.18193456345703454" transform="translate(53.332989662885666 11.391012892127037) rotate(-10.436507007107139)" />
    
    <rect width="1600" height="480" fill="url(#vignette)" />
    <rect width="1600" height="480" filter="url(#grain)" opacity="0.5" />
  
    <text x="1586" y="466" text-anchor="end" font-family="Sora, sans-serif" font-weight="800" font-size="14" letter-spacing="2" fill="#ffffff" opacity="0.35">ARCYN</text>
  </svg>