<svg xmlns="http://www.w3.org/2000/svg" viewBox="0 0 1600 480" width="1600" height="480">
    <defs>
    <linearGradient id="bg" x1="0%" y1="0%" x2="100%" y2="100%">
      <stop offset="0%" stop-color="rgb(140, 50, 75)" />
      <stop offset="55%" stop-color="#0a0a14" />
      <stop offset="100%" stop-color="#05050a" />
    </linearGradient>
    <radialGradient id="glow" cx="50%" cy="35%" r="65%">
      <stop offset="0%" stop-color="#ff5c8a" stop-opacity="0.55" />
      <stop offset="100%" stop-color="#ff5c8a" stop-opacity="0" />
    </radialGradient>
    <radialGradient id="vignette" cx="50%" cy="45%" r="75%">
      <stop offset="55%" stop-color="#000000" stop-opacity="0" />
      <stop offset="100%" stop-color="#000000" stop-opacity="0.55" />
    </radialGradient>
    <filter id="grain">
      <feTurbulence type="fractalNoise" baseFrequency="0.85" numOctaves="2" stitchTiles="stitch" result="noise" />
      <feColorMatrix in="noise" type="matrix" values="0 0 0 0 1  0 0 0 0 1  0 0 0 0 1  0 0 0 0.05 0" />
    </filter>
    <filter id="blur"><feGaussianBlur stdDeviation="8" /></filter>
  </defs>
    
    <rect width="1600" height="480" fill="url(#bg)" />
    <rect width="1600" height="480" fill="url(#glow)" />
  
    
      <polygon points="704,201.6 896,201.6 1600,480 0,480" fill="rgb(71, 25, 38)" opacity="0.5" />
      <line x1="704" y1="201.6" x2="896" y2="201.6" stroke="#ffb444" stroke-opacity="0.15" stroke-width="1" /><line x1="581.3333333333334" y1="248" x2="1018.6666666666666" y2="248" stroke="#ffb444" stroke-opacity="0.16666666666666666" stroke-width="1.3333333333333333" /><line x1="458.6666666666667" y1="294.4" x2="1141.3333333333333" y2="294.4" stroke="#ffb444" stroke-opacity="0.18333333333333332" stroke-width="1.6666666666666665" /><line x1="335.99999999999994" y1="340.79999999999995" x2="1264" y2="340.79999999999995" stroke="#ffb444" stroke-opacity="0.2" stroke-width="2" /><line x1="213.33333333333337" y1="387.19999999999993" x2="1386.6666666666665" y2="387.19999999999993" stroke="#ffb444" stroke-opacity="0.21666666666666667" stroke-width="2.333333333333333" /><line x1="90.66666666666663" y1="433.6" x2="1509.3333333333335" y2="433.6" stroke="#ffb444" stroke-opacity="0.23333333333333334" stroke-width="2.666666666666667" /><line x1="-32" y1="480" x2="1632" y2="480" stroke="#ffb444" stroke-opacity="0.25" stroke-width="3" />
      <line x1="0" y1="201.6" x2="1600" y2="201.6" stroke="#ff5c8a" stroke-opacity="0.4" stroke-width="2" />
      <rect x="1332.9298857599497" y="91.78977359794081" width="218.31063762307167" height="3" rx="1.5" fill="#ff5c8a" opacity="0.4759328560205176" transform="skewX(-25)" /><rect x="1526.0382521897554" y="129.48450974322856" width="116.63270056247711" height="3" rx="1.5" fill="#ff5c8a" opacity="0.45760646217968315" transform="skewX(-25)" /><rect x="62.53059357404709" y="50.974454716816545" width="65.81955257803202" height="3" rx="1.5" fill="#ff5c8a" opacity="0.39345188576262446" transform="skewX(-25)" /><rect x="1386.184262484312" y="102.17097587153316" width="62.89100393652916" height="3" rx="1.5" fill="#ff5c8a" opacity="0.40147983694914724" transform="skewX(-25)" /><rect x="1398.7909592688084" y="105.70587440475822" width="148.64961221814156" height="3" rx="1.5" fill="#ff5c8a" opacity="0.3188849076628685" transform="skewX(-25)" /><rect x="177.43062525987625" y="156.6599176773429" width="71.51727382093668" height="3" rx="1.5" fill="#ff5c8a" opacity="0.3570678653428331" transform="skewX(-25)" /><rect x="1222.9223269969225" y="110.22938898183405" width="147.70133998245" height="3" rx="1.5" fill="#ff5c8a" opacity="0.45263657544273883" transform="skewX(-25)" /><rect x="1493.5314487665892" y="138.52962089933453" width="203.8112336397171" height="3" rx="1.5" fill="#ff5c8a" opacity="0.49235464090015735" transform="skewX(-25)" /><rect x="624.9968905001879" y="12.024347619712353" width="191.05329371988773" height="3" rx="1.5" fill="#ff5c8a" opacity="0.46694712187163534" transform="skewX(-25)" /><rect x="869.1381555050611" y="64.38539204761386" width="63.61303649842739" height="3" rx="1.5" fill="#ff5c8a" opacity="0.47676421103533356" transform="skewX(-25)" />
    
    
    <rect width="1600" height="480" fill="url(#vignette)" />
    <rect width="1600" height="480" filter="url(#grain)" opacity="0.5" />
  
    <text x="1586" y="466" text-anchor="end" font-family="Sora, sans-serif" font-weight="800" font-size="14" letter-spacing="2" fill="#ffffff" opacity="0.35">ARCYN</text>
  </svg>