<svg xmlns="http://www.w3.org/2000/svg" viewBox="0 0 1600 480" width="1600" height="480">
    <defs>
    <linearGradient id="bg" x1="0%" y1="0%" x2="100%" y2="100%">
      <stop offset="0%" stop-color="rgb(18, 116, 130)" />
      <stop offset="55%" stop-color="#0a0a14" />
      <stop offset="100%" stop-color="#05050a" />
    </linearGradient>
    <radialGradient id="glow" cx="50%" cy="35%" r="65%">
      <stop offset="0%" stop-color="#22d3ee" stop-opacity="0.55" />
      <stop offset="100%" stop-color="#22d3ee" stop-opacity="0" />
    </radialGradient>
    <radialGradient id="vignette" cx="50%" cy="45%" r="75%">
      <stop offset="55%" stop-color="#000000" stop-opacity="0" />
      <stop offset="100%" stop-color="#000000" stop-opacity="0.55" />
    </radialGradient>
    <filter id="grain">
      <feTurbulence type="fractalNoise" baseFrequency="0.85" numOctaves="2" stitchTiles="stitch" result="noise" />
      <feColorMatrix in="noise" type="matrix" values="0 0 0 0 1  0 0 0 0 1  0 0 0 0 1  0 0 0 0.05 0" />
    </filter>
    <filter id="blur"><feGaussianBlur stdDeviation="8" /></filter>
  </defs>
    
    <rect width="1600" height="480" fill="url(#bg)" />
    <rect width="1600" height="480" fill="url(#glow)" />
  
    <line x1="228.57142857142858" y1="38.4" x2="457.14285714285717" y2="38.4" stroke="#22d3ee" stroke-opacity="0.25" stroke-width="1" /><line x1="685.7142857142858" y1="38.4" x2="1371.4285714285716" y2="38.4" stroke="#22d3ee" stroke-opacity="0.25" stroke-width="1" /><line x1="1371.4285714285716" y1="38.4" x2="114.28571428571429" y2="146.4" stroke="#22d3ee" stroke-opacity="0.25" stroke-width="1" /><line x1="114.28571428571429" y1="146.4" x2="342.8571428571429" y2="146.4" stroke="#22d3ee" stroke-opacity="0.25" stroke-width="1" /><line x1="571.4285714285714" y1="146.4" x2="1028.5714285714287" y2="146.4" stroke="#22d3ee" stroke-opacity="0.25" stroke-width="1" /><line x1="1028.5714285714287" y1="146.4" x2="1257.142857142857" y2="146.4" stroke="#22d3ee" stroke-opacity="0.25" stroke-width="1" /><line x1="1257.142857142857" y1="146.4" x2="1485.7142857142858" y2="146.4" stroke="#22d3ee" stroke-opacity="0.25" stroke-width="1" /><line x1="1485.7142857142858" y1="146.4" x2="0" y2="254.4" stroke="#22d3ee" stroke-opacity="0.25" stroke-width="1" /><line x1="1142.857142857143" y1="254.4" x2="1371.4285714285716" y2="254.4" stroke="#22d3ee" stroke-opacity="0.25" stroke-width="1" /><line x1="1371.4285714285716" y1="254.4" x2="114.28571428571429" y2="362.4" stroke="#22d3ee" stroke-opacity="0.25" stroke-width="1" /><polygon points="83.13843876330611,-9.599999999999994 83.13843876330611,86.39999999999999 5.878304635907295e-15,134.4 -83.13843876330611,86.39999999999999 -83.13843876330613,-9.599999999999973 -1.0290004219893391e-13,-57.6" fill="#7c5cff" opacity="0.15469011692795903" stroke="#7c5cff" stroke-opacity="0.4" /><polygon points="311.70986733473467,-9.599999999999994 311.70986733473467,86.39999999999999 228.57142857142858,134.4 145.43298980812247,86.39999999999999 145.43298980812244,-9.599999999999973 228.57142857142847,-57.6" fill="#22d3ee" opacity="0.16997215397888793" stroke="#22d3ee" stroke-opacity="0.4" /><polygon points="540.2812959061632,-9.599999999999994 540.2812959061632,86.39999999999999 457.14285714285717,134.4 374.00441837955105,86.39999999999999 374.00441837955105,-9.599999999999973 457.14285714285705,-57.6" fill="#7c5cff" opacity="0.15357996308477595" stroke="#7c5cff" stroke-opacity="0.4" /><polygon points="768.8527244775919,-9.599999999999994 768.8527244775919,86.39999999999999 685.7142857142858,134.4 602.5758469509797,86.39999999999999 602.5758469509797,-9.599999999999973 685.7142857142857,-57.6" fill="#7c5cff" opacity="0.24872042072704062" stroke="#7c5cff" stroke-opacity="0.4" /><polygon points="1454.5670101918777,-9.599999999999994 1454.5670101918777,86.39999999999999 1371.4285714285716,134.4 1288.2901326652654,86.39999999999999 1288.2901326652654,-9.599999999999973 1371.4285714285716,-57.6" fill="#7c5cff" opacity="0.21145384558942168" stroke="#7c5cff" stroke-opacity="0.4" /><polygon points="197.4241530490204,98.4 197.4241530490204,194.4 114.28571428571429,242.4 31.14727552240818,194.4 31.147275522408165,98.40000000000003 114.28571428571419,50.400000000000006" fill="#22d3ee" opacity="0.2173797144717537" stroke="#22d3ee" stroke-opacity="0.4" /><polygon points="425.995581620449,98.4 425.995581620449,194.4 342.8571428571429,242.4 259.7187040938368,194.4 259.7187040938368,98.40000000000003 342.8571428571428,50.400000000000006" fill="#22d3ee" opacity="0.2077558910753578" stroke="#22d3ee" stroke-opacity="0.4" /><polygon points="654.5670101918776,98.4 654.5670101918776,194.4 571.4285714285714,242.4 488.29013266526533,194.4 488.29013266526533,98.40000000000003 571.4285714285713,50.400000000000006" fill="#22d3ee" opacity="0.12313339352142065" stroke="#22d3ee" stroke-opacity="0.4" /><polygon points="1111.7098673347348,98.4 1111.7098673347348,194.4 1028.5714285714287,242.4 945.4329898081226,194.4 945.4329898081226,98.40000000000003 1028.5714285714287,50.400000000000006" fill="#7c5cff" opacity="0.17197129247244447" stroke="#7c5cff" stroke-opacity="0.4" /><polygon points="1340.2812959061632,98.4 1340.2812959061632,194.4 1257.142857142857,242.4 1174.004418379551,194.4 1174.004418379551,98.40000000000003 1257.142857142857,50.400000000000006" fill="#7c5cff" opacity="0.16196769080590456" stroke="#7c5cff" stroke-opacity="0.4" /><polygon points="1568.852724477592,98.4 1568.852724477592,194.4 1485.7142857142858,242.4 1402.5758469509797,194.4 1402.5758469509797,98.40000000000003 1485.7142857142858,50.400000000000006" fill="#22d3ee" opacity="0.19364193052053452" stroke="#22d3ee" stroke-opacity="0.4" /><polygon points="83.13843876330611,206.4 83.13843876330611,302.4 5.878304635907295e-15,350.4 -83.13843876330611,302.4 -83.13843876330613,206.40000000000003 -1.0290004219893391e-13,158.4" fill="#22d3ee" opacity="0.19565487421816213" stroke="#22d3ee" stroke-opacity="0.4" /><polygon points="768.8527244775919,206.4 768.8527244775919,302.4 685.7142857142858,350.4 602.5758469509797,302.4 602.5758469509797,206.40000000000003 685.7142857142857,158.4" fill="#7c5cff" opacity="0.12109481988474727" stroke="#7c5cff" stroke-opacity="0.4" /><polygon points="1225.995581620449,206.4 1225.995581620449,302.4 1142.857142857143,350.4 1059.7187040938368,302.4 1059.7187040938368,206.40000000000003 1142.857142857143,158.4" fill="#22d3ee" opacity="0.23967438000719993" stroke="#22d3ee" stroke-opacity="0.4" /><polygon points="1454.5670101918777,206.4 1454.5670101918777,302.4 1371.4285714285716,350.4 1288.2901326652654,302.4 1288.2901326652654,206.40000000000003 1371.4285714285716,158.4" fill="#22d3ee" opacity="0.24961023410316555" stroke="#22d3ee" stroke-opacity="0.4" /><polygon points="197.4241530490204,314.4 197.4241530490204,410.4 114.28571428571429,458.4 31.14727552240818,410.4 31.147275522408165,314.4 114.28571428571419,266.4" fill="#7c5cff" opacity="0.2638794624991715" stroke="#7c5cff" stroke-opacity="0.4" /><polygon points="883.1384387633062,314.4 883.1384387633062,410.4 800.0000000000001,458.4 716.861561236694,410.4 716.861561236694,314.4 800,266.4" fill="#7c5cff" opacity="0.21387962410692124" stroke="#7c5cff" stroke-opacity="0.4" /><polygon points="1111.7098673347348,314.4 1111.7098673347348,410.4 1028.5714285714287,458.4 945.4329898081226,410.4 945.4329898081226,314.4 1028.5714285714287,266.4" fill="#7c5cff" opacity="0.23805055453442037" stroke="#7c5cff" stroke-opacity="0.4" /><polygon points="1340.2812959061632,314.4 1340.2812959061632,410.4 1257.142857142857,458.4 1174.004418379551,410.4 1174.004418379551,314.4 1257.142857142857,266.4" fill="#7c5cff" opacity="0.1235374715924263" stroke="#7c5cff" stroke-opacity="0.4" /><polygon points="1568.852724477592,314.4 1568.852724477592,410.4 1485.7142857142858,458.4 1402.5758469509797,410.4 1402.5758469509797,314.4 1485.7142857142858,266.4" fill="#22d3ee" opacity="0.14340239672921598" stroke="#22d3ee" stroke-opacity="0.4" />
    
    <rect width="1600" height="480" fill="url(#vignette)" />
    <rect width="1600" height="480" filter="url(#grain)" opacity="0.5" />
  
    <text x="1586" y="466" text-anchor="end" font-family="Sora, sans-serif" font-weight="800" font-size="14" letter-spacing="2" fill="#ffffff" opacity="0.35">ARCYN</text>
  </svg>