<svg xmlns="http://www.w3.org/2000/svg" viewBox="0 0 24 24">
  <defs>
    <linearGradient id="g" x1="0" y1="0" x2="1" y2="1">
      <stop offset="0%" stop-color="#7c5cff"/>
      <stop offset="55%" stop-color="#22d3ee"/>
      <stop offset="100%" stop-color="#ff5c8a"/>
    </linearGradient>
  </defs>
  <rect width="24" height="24" rx="6" fill="url(#g)"/>
  <path d="M6 11h4M8 9v4M15.5 11h.01M18 9.5h.01" stroke="#fff" stroke-width="1.8" stroke-linecap="round" stroke-linejoin="round" fill="none"/>
  <path d="M17.32 5H6.68a4 4 0 0 0-3.93 3.27l-.7 3.85A3.5 3.5 0 0 0 5.5 16.5c.86 0 1.68-.34 2.29-.95L9.5 13.8a2 2 0 0 1 1.4-.58h2.2a2 2 0 0 1 1.4.58l1.71 1.75a3.24 3.24 0 0 0 5.6-2.21c0-.24-.02-.48-.07-.71l-.7-3.85A4 4 0 0 0 17.32 5Z" stroke="#fff" stroke-width="1.8" stroke-linecap="round" stroke-linejoin="round" fill="none"/>
</svg>
